<svg version="1.1" viewBox="0.0 0.0 680.9527559055118 508.33858267716533" fill="none" stroke="none" stroke-linecap="square" stroke-miterlimit="10" xmlns:xlink="http://www.w3.org/1999/xlink" xmlns="http://www.w3.org/2000/svg"><clipPath id="p.0"><path d="m0 0l680.95276 0l0 508.3386l-680.95276 0l0 -508.3386z" clip-rule="nonzero"/></clipPath><g clip-path="url(#p.0)"><path fill="#000000" fill-opacity="0.0" d="m0 0l680.95276 0l0 508.3386l-680.95276 0z" fill-rule="evenodd"/><path fill="#674ea7" d="m395.90814 119.70079l201.3858 0l0 60.031494l-201.3858 0z" fill-rule="evenodd"/><path stroke="#000000" stroke-width="2.0" stroke-linejoin="round" stroke-linecap="butt" d="m395.90814 119.70079l201.3858 0l0 60.031494l-201.3858 0z" fill-rule="evenodd"/><path fill="#ffffff" d="m457.55008 156.63654l0 -13.359375l2.65625 0l3.15625 9.453125q0.4375 1.328125 0.640625 1.984375q0.234375 -0.734375 0.703125 -2.140625l3.203125 -9.296875l2.375 0l0 13.359375l-1.703125 0l0 -11.171875l-3.875 11.171875l-1.59375 0l-3.859375 -11.375l0 11.375l-1.703125 0zm21.712677 0l0 -1.421875q-1.125 1.640625 -3.0625 1.640625q-0.859375 0 -1.609375 -0.328125q-0.734375 -0.328125 -1.09375 -0.828125q-0.359375 -0.5 -0.5 -1.21875q-0.109375 -0.46875 -0.109375 -1.53125l0 -5.984375l1.640625 0l0 5.359375q0 1.28125 0.109375 1.734375q0.15625 0.640625 0.65625 1.015625q0.5 0.375 1.234375 0.375q0.734375 0 1.375 -0.375q0.65625 -0.390625 0.921875 -1.03125q0.265625 -0.65625 0.265625 -1.890625l0 -5.1875l1.640625 0l0 9.671875l-1.46875 0zm7.625702 -1.46875l0.234375 1.453125q-0.6875 0.140625 -1.234375 0.140625q-0.890625 0 -1.390625 -0.28125q-0.484375 -0.28125 -0.6875 -0.734375q-0.203125 -0.46875 -0.203125 -1.9375l0 -5.578125l-1.203125 0l0 -1.265625l1.203125 0l0 -2.390625l1.625 -0.984375l0 3.375l1.65625 0l0 1.265625l-1.65625 0l0 5.671875q0 0.6875 0.078125 0.890625q0.09375 0.203125 0.28125 0.328125q0.203125 0.109375 0.578125 0.109375q0.265625 0 0.71875 -0.0625zm7.917694 0.28125q-0.921875 0.765625 -1.765625 1.09375q-0.828125 0.3125 -1.796875 0.3125q-1.59375 0 -2.453125 -0.78125q-0.859375 -0.78125 -0.859375 -1.984375q0 -0.71875 0.328125 -1.296875q0.328125 -0.59375 0.84375 -0.9375q0.53125 -0.359375 1.1875 -0.546875q0.46875 -0.125 1.453125 -0.25q1.984375 -0.234375 2.921875 -0.5625q0.015625 -0.34375 0.015625 -0.421875q0 -1.0 -0.46875 -1.421875q-0.625 -0.546875 -1.875 -0.546875q-1.15625 0 -1.703125 0.40625q-0.546875 0.40625 -0.8125 1.421875l-1.609375 -0.21875q0.21875 -1.015625 0.71875 -1.640625q0.5 -0.640625 1.453125 -0.984375q0.953125 -0.34375 2.1875 -0.34375q1.25 0 2.015625 0.296875q0.78125 0.28125 1.140625 0.734375q0.375 0.4375 0.515625 1.109375q0.078125 0.421875 0.078125 1.515625l0 2.1875q0 2.28125 0.109375 2.890625q0.109375 0.59375 0.40625 1.15625l-1.703125 0q-0.265625 -0.515625 -0.328125 -1.1875zm-0.140625 -3.671875q-0.890625 0.375 -2.671875 0.625q-1.015625 0.140625 -1.4375 0.328125q-0.421875 0.1875 -0.65625 0.53125q-0.21875 0.34375 -0.21875 0.78125q0 0.65625 0.5 1.09375q0.5 0.4375 1.453125 0.4375q0.9375 0 1.671875 -0.40625q0.75 -0.421875 1.09375 -1.140625q0.265625 -0.5625 0.265625 -1.640625l0 -0.609375zm7.781952 3.390625l0.234375 1.453125q-0.6875 0.140625 -1.234375 0.140625q-0.890625 0 -1.390625 -0.28125q-0.484375 -0.28125 -0.6875 -0.734375q-0.203125 -0.46875 -0.203125 -1.9375l0 -5.578125l-1.203125 0l0 -1.265625l1.203125 0l0 -2.390625l1.625 -0.984375l0 3.375l1.65625 0l0 1.265625l-1.65625 0l0 5.671875q0 0.6875 0.078125 0.890625q0.09375 0.203125 0.28125 0.328125q0.203125 0.109375 0.578125 0.109375q0.265625 0 0.71875 -0.0625zm1.6051941 -10.0l0 -1.890625l1.640625 0l0 1.890625l-1.640625 0zm0 11.46875l0 -9.671875l1.640625 0l0 9.671875l-1.640625 0zm3.535431 -4.84375q0 -2.6875 1.484375 -3.96875q1.25 -1.078125 3.0469055 -1.078125q2.0 0 3.265625 1.3125q1.265625 1.296875 1.265625 3.609375q0 1.859375 -0.5625 2.9375q-0.5625 1.0625 -1.640625 1.65625q-1.0625 0.59375 -2.328125 0.59375q-2.0312805 0 -3.2812805 -1.296875q-1.25 -1.3125 -1.25 -3.765625zm1.6875 0q0 1.859375 0.796875 2.796875q0.8125 0.921875 2.0469055 0.921875q1.21875 0 2.03125 -0.921875q0.8125 -0.9375 0.8125 -2.84375q0 -1.796875 -0.8125 -2.71875q-0.8125 -0.921875 -2.03125 -0.921875q-1.2344055 0 -2.0469055 0.921875q-0.796875 0.90625 -0.796875 2.765625zm9.297577 4.84375l0 -9.671875l1.46875 0l0 1.375q1.0625 -1.59375 3.078125 -1.59375q0.875 0 1.609375 0.3125q0.734375 0.3125 1.09375 0.828125q0.375 0.5 0.515625 1.203125q0.09375 0.453125 0.09375 1.59375l0 5.953125l-1.640625 0l0 -5.890625q0 -1.0 -0.203125 -1.484375q-0.1875 -0.5 -0.671875 -0.796875q-0.484375 -0.296875 -1.140625 -0.296875q-1.046875 0 -1.8125 0.671875q-0.75 0.65625 -0.75 2.515625l0 5.28125l-1.640625 0zm9.719482 -2.890625l1.625 -0.25q0.125 0.96875 0.75 1.5q0.625 0.515625 1.75 0.515625q1.125 0 1.671875 -0.453125q0.546875 -0.46875 0.546875 -1.09375q0 -0.546875 -0.484375 -0.875q-0.328125 -0.21875 -1.671875 -0.546875q-1.8125 -0.46875 -2.515625 -0.796875q-0.6875 -0.328125 -1.046875 -0.90625q-0.359375 -0.59375 -0.359375 -1.3125q0 -0.640625 0.296875 -1.1875q0.296875 -0.5625 0.8125 -0.921875q0.375 -0.28125 1.03125 -0.46875q0.671875 -0.203125 1.421875 -0.203125q1.140625 0 2.0 0.328125q0.859375 0.328125 1.265625 0.890625q0.421875 0.5625 0.578125 1.5l-1.609375 0.21875q-0.109375 -0.75 -0.640625 -1.171875q-0.515625 -0.421875 -1.46875 -0.421875q-1.140625 0 -1.625 0.375q-0.46875 0.375 -0.46875 0.875q0 0.3125 0.1875 0.578125q0.203125 0.265625 0.640625 0.4375q0.234375 0.09375 1.4375 0.421875q1.75 0.453125 2.4375 0.75q0.6875 0.296875 1.078125 0.859375q0.390625 0.5625 0.390625 1.40625q0 0.828125 -0.484375 1.546875q-0.46875 0.71875 -1.375 1.125q-0.90625 0.390625 -2.046875 0.390625q-1.875 0 -2.875 -0.78125q-0.984375 -0.78125 -1.25 -2.328125z" fill-rule="nonzero"/><path fill="#674ea7" d="m53.283466 119.70079l201.38583 0l0 60.031494l-201.38583 0z" fill-rule="evenodd"/><path stroke="#000000" stroke-width="2.0" stroke-linejoin="round" stroke-linecap="butt" d="m53.283466 119.70079l201.38583 0l0 60.031494l-201.38583 0z" fill-rule="evenodd"/><path fill="#ffffff" d="m88.46655 152.33966l1.65625 -0.140625q0.125 1.0 0.546875 1.640625q0.4375 0.640625 1.34375 1.046875q0.921875 0.390625 2.0625 0.390625q1.0 0 1.78125 -0.296875q0.78125 -0.296875 1.15625 -0.8125q0.375 -0.53125 0.375 -1.15625q0 -0.625 -0.375 -1.09375q-0.359375 -0.46875 -1.1875 -0.796875q-0.546875 -0.203125 -2.390625 -0.640625q-1.828125 -0.453125 -2.5625 -0.84375q-0.96875 -0.5 -1.4375 -1.234375q-0.46875 -0.75 -0.46875 -1.671875q0 -1.0 0.578125 -1.875q0.578125 -0.890625 1.671875 -1.34375q1.109375 -0.453125 2.453125 -0.453125q1.484375 0 2.609375 0.484375q1.140625 0.46875 1.75 1.40625q0.609375 0.921875 0.65625 2.09375l-1.6875 0.125q-0.140625 -1.265625 -0.9375 -1.90625q-0.78125 -0.65625 -2.3125 -0.65625q-1.609375 0 -2.34375 0.59375q-0.734375 0.59375 -0.734375 1.421875q0 0.71875 0.53125 1.171875q0.5 0.46875 2.65625 0.96875q2.15625 0.484375 2.953125 0.84375q1.171875 0.53125 1.71875 1.359375q0.5625 0.828125 0.5625 1.90625q0 1.0625 -0.609375 2.015625q-0.609375 0.9375 -1.75 1.46875q-1.140625 0.515625 -2.578125 0.515625q-1.8125 0 -3.046875 -0.53125q-1.21875 -0.53125 -1.921875 -1.59375q-0.6875 -1.0625 -0.71875 -2.40625zm16.412323 2.828125l0.234375 1.453125q-0.6875 0.140625 -1.234375 0.140625q-0.890625 0 -1.390625 -0.28125q-0.484375 -0.28125 -0.6875 -0.734375q-0.203125 -0.46875 -0.203125 -1.9375l0 -5.578125l-1.203125 0l0 -1.265625l1.203125 0l0 -2.390625l1.625 -0.984375l0 3.375l1.65625 0l0 1.265625l-1.65625 0l0 5.671875q0 0.6875 0.078125 0.890625q0.09375 0.203125 0.28125 0.328125q0.203125 0.109375 0.578125 0.109375q0.265625 0 0.71875 -0.0625zm0.99580383 -3.375q0 -2.6875 1.484375 -3.96875q1.25 -1.078125 3.046875 -1.078125q2.0 0 3.265625 1.3125q1.265625 1.296875 1.265625 3.609375q0 1.859375 -0.5625 2.9375q-0.5625 1.0625 -1.640625 1.65625q-1.0625 0.59375 -2.328125 0.59375q-2.03125 0 -3.28125 -1.296875q-1.25 -1.3125 -1.25 -3.765625zm1.6875 0q0 1.859375 0.796875 2.796875q0.8125 0.921875 2.046875 0.921875q1.21875 0 2.03125 -0.921875q0.8125 -0.9375 0.8125 -2.84375q0 -1.796875 -0.8125 -2.71875q-0.8125 -0.921875 -2.03125 -0.921875q-1.234375 0 -2.046875 0.921875q-0.796875 0.90625 -0.796875 2.765625zm9.281967 4.84375l0 -9.671875l1.46875 0l0 1.46875q0.5625 -1.03125 1.03125 -1.359375q0.484375 -0.328125 1.0625 -0.328125q0.828125 0 1.6875 0.53125l-0.5625 1.515625q-0.609375 -0.359375 -1.203125 -0.359375q-0.546875 0 -0.96875 0.328125q-0.421875 0.328125 -0.609375 0.890625q-0.28125 0.875 -0.28125 1.921875l0 5.0625l-1.625 0zm12.853302 -3.109375l1.6875 0.203125q-0.40625 1.484375 -1.484375 2.3125q-1.078125 0.8125 -2.765625 0.8125q-2.125 0 -3.375 -1.296875q-1.234375 -1.3125 -1.234375 -3.671875q0 -2.453125 1.25 -3.796875q1.265625 -1.34375 3.265625 -1.34375q1.9375 0 3.15625 1.328125q1.234375 1.3125 1.234375 3.703125q0 0.15625 0 0.4375l-7.21875 0q0.09375 1.59375 0.90625 2.453125q0.8125 0.84375 2.015625 0.84375q0.90625 0 1.546875 -0.46875q0.640625 -0.484375 1.015625 -1.515625zm-5.390625 -2.65625l5.40625 0q-0.109375 -1.21875 -0.625 -1.828125q-0.78125 -0.953125 -2.03125 -0.953125q-1.125 0 -1.90625 0.765625q-0.765625 0.75 -0.84375 2.015625zm17.449646 9.6875q-1.359375 -1.703125 -2.296875 -4.0q-0.9375 -2.296875 -0.9375 -4.765625q0 -2.15625 0.703125 -4.140625q0.828125 -2.3125 2.53125 -4.59375l1.171875 0q-1.09375 1.890625 -1.453125 2.703125q-0.546875 1.25 -0.875 2.625q-0.390625 1.703125 -0.390625 3.421875q0 4.375 2.71875 8.75l-1.171875 0zm18.005356 -8.609375l1.765625 0.453125q-0.5625 2.171875 -2.0 3.328125q-1.4375 1.140625 -3.53125 1.140625q-2.15625 0 -3.515625 -0.875q-1.34375 -0.890625 -2.0625 -2.546875q-0.703125 -1.671875 -0.703125 -3.59375q0 -2.078125 0.796875 -3.625q0.796875 -1.5625 2.265625 -2.359375q1.484375 -0.8125 3.25 -0.8125q2.0 0 3.359375 1.015625q1.375 1.015625 1.90625 2.875l-1.734375 0.40625q-0.46875 -1.453125 -1.359375 -2.109375q-0.875 -0.671875 -2.203125 -0.671875q-1.546875 0 -2.578125 0.734375q-1.03125 0.734375 -1.453125 1.984375q-0.421875 1.234375 -0.421875 2.5625q0 1.703125 0.5 2.96875q0.5 1.265625 1.546875 1.90625q1.046875 0.625 2.265625 0.625q1.484375 0 2.515625 -0.859375q1.03125 -0.859375 1.390625 -2.546875zm10.363571 1.578125l1.6875 0.203125q-0.40625 1.484375 -1.484375 2.3125q-1.078125 0.8125 -2.765625 0.8125q-2.125 0 -3.375 -1.296875q-1.234375 -1.3125 -1.234375 -3.671875q0 -2.453125 1.25 -3.796875q1.265625 -1.34375 3.265625 -1.34375q1.9375 0 3.15625 1.328125q1.234375 1.3125 1.234375 3.703125q0 0.15625 0 0.4375l-7.21875 0q0.09375 1.59375 0.90625 2.453125q0.8125 0.84375 2.015625 0.84375q0.90625 0 1.546875 -0.46875q0.640625 -0.484375 1.015625 -1.515625zm-5.390625 -2.65625l5.40625 0q-0.109375 -1.21875 -0.625 -1.828125q-0.78125 -0.953125 -2.03125 -0.953125q-1.125 0 -1.90625 0.765625q-0.765625 0.75 -0.84375 2.015625zm9.141342 5.765625l0 -9.671875l1.46875 0l0 1.375q1.0625 -1.59375 3.078125 -1.59375q0.875 0 1.609375 0.3125q0.734375 0.3125 1.09375 0.828125q0.375 0.5 0.515625 1.203125q0.09375 0.453125 0.09375 1.59375l0 5.953125l-1.640625 0l0 -5.890625q0 -1.0 -0.203125 -1.484375q-0.1875 -0.5 -0.671875 -0.796875q-0.484375 -0.296875 -1.140625 -0.296875q-1.046875 0 -1.8125 0.671875q-0.75 0.65625 -0.75 2.515625l0 5.28125l-1.640625 0zm13.953842 -1.46875l0.234375 1.453125q-0.6875 0.140625 -1.234375 0.140625q-0.890625 0 -1.390625 -0.28125q-0.484375 -0.28125 -0.6875 -0.734375q-0.203125 -0.46875 -0.203125 -1.9375l0 -5.578125l-1.203125 0l0 -1.265625l1.203125 0l0 -2.390625l1.625 -0.984375l0 3.375l1.65625 0l0 1.265625l-1.65625 0l0 5.671875q0 0.6875 0.078125 0.890625q0.09375 0.203125 0.28125 0.328125q0.203125 0.109375 0.578125 0.109375q0.265625 0 0.71875 -0.0625zm1.5895538 1.46875l0 -9.671875l1.46875 0l0 1.46875q0.5625 -1.03125 1.03125 -1.359375q0.484375 -0.328125 1.0625 -0.328125q0.828125 0 1.6875 0.53125l-0.5625 1.515625q-0.609375 -0.359375 -1.203125 -0.359375q-0.546875 0 -0.96875 0.328125q-0.421875 0.328125 -0.609375 0.890625q-0.28125 0.875 -0.28125 1.921875l0 5.0625l-1.625 0zm12.540802 -1.1875q-0.921875 0.765625 -1.765625 1.09375q-0.828125 0.3125 -1.796875 0.3125q-1.59375 0 -2.453125 -0.78125q-0.859375 -0.78125 -0.859375 -1.984375q0 -0.71875 0.328125 -1.296875q0.328125 -0.59375 0.84375 -0.9375q0.53125 -0.359375 1.1875 -0.546875q0.46875 -0.125 1.453125 -0.25q1.984375 -0.234375 2.921875 -0.5625q0.015625 -0.34375 0.015625 -0.421875q0 -1.0 -0.46875 -1.421875q-0.625 -0.546875 -1.875 -0.546875q-1.15625 0 -1.703125 0.40625q-0.546875 0.40625 -0.8125 1.421875l-1.609375 -0.21875q0.21875 -1.015625 0.71875 -1.640625q0.5 -0.640625 1.453125 -0.984375q0.953125 -0.34375 2.1875 -0.34375q1.25 0 2.015625 0.296875q0.78125 0.28125 1.140625 0.734375q0.375 0.4375 0.515625 1.109375q0.078125 0.421875 0.078125 1.515625l0 2.1875q0 2.28125 0.109375 2.890625q0.109375 0.59375 0.40625 1.15625l-1.703125 0q-0.265625 -0.515625 -0.328125 -1.1875zm-0.140625 -3.671875q-0.890625 0.375 -2.671875 0.625q-1.015625 0.140625 -1.4375 0.328125q-0.421875 0.1875 -0.65625 0.53125q-0.21875 0.34375 -0.21875 0.78125q0 0.65625 0.5 1.09375q0.5 0.4375 1.453125 0.4375q0.9375 0 1.671875 -0.40625q0.75 -0.421875 1.09375 -1.140625q0.265625 -0.5625 0.265625 -1.640625l0 -0.609375zm4.156967 4.859375l0 -13.359375l1.640625 0l0 13.359375l-1.640625 0zm10.453125 3.921875l-1.1875 0q2.734375 -4.375 2.734375 -8.75q0 -1.71875 -0.390625 -3.390625q-0.3125 -1.375 -0.875 -2.625q-0.359375 -0.828125 -1.46875 -2.734375l1.1875 0q1.703125 2.28125 2.53125 4.59375q0.6875 1.984375 0.6875 4.140625q0 2.46875 -0.9375 4.765625q-0.9375 2.296875 -2.28125 4.0z" fill-rule="nonzero"/><path fill="#f6b26b" d="m53.283466 223.75066l201.38583 0l0 60.03151l-201.38583 0z" fill-rule="evenodd"/><path stroke="#000000" stroke-width="2.0" stroke-linejoin="round" stroke-linecap="butt" d="m53.283466 223.75066l201.38583 0l0 60.03151l-201.38583 0z" fill-rule="evenodd"/><path fill="#ffffff" d="m135.74281 255.45203l0 -1.578125l5.65625 0l0 4.953125q-1.296875 1.046875 -2.6875 1.578125q-1.375 0.515625 -2.84375 0.515625q-1.96875 0 -3.578125 -0.84375q-1.609375 -0.84375 -2.421875 -2.4375q-0.8125 -1.59375 -0.8125 -3.5625q0 -1.953125 0.8125 -3.640625q0.8125 -1.6875 2.34375 -2.5q1.53125 -0.828125 3.515625 -0.828125q1.453125 0 2.625 0.46875q1.171875 0.46875 1.828125 1.3125q0.671875 0.828125 1.015625 2.171875l-1.59375 0.4375q-0.296875 -1.015625 -0.75 -1.59375q-0.4375 -0.59375 -1.265625 -0.9375q-0.828125 -0.34375 -1.84375 -0.34375q-1.203125 0 -2.09375 0.375q-0.890625 0.359375 -1.4375 0.96875q-0.53125 0.59375 -0.828125 1.3125q-0.515625 1.234375 -0.515625 2.6875q0 1.78125 0.609375 2.984375q0.625 1.203125 1.796875 1.796875q1.171875 0.578125 2.5 0.578125q1.140625 0 2.234375 -0.4375q1.09375 -0.453125 1.65625 -0.953125l0 -2.484375l-3.921875 0zm14.683304 2.125l1.6875 0.203125q-0.40625 1.484375 -1.484375 2.3125q-1.078125 0.8125 -2.765625 0.8125q-2.125 0 -3.375 -1.296875q-1.234375 -1.3125 -1.234375 -3.671875q0 -2.453125 1.25 -3.796875q1.265625 -1.34375 3.265625 -1.34375q1.9375 0 3.15625 1.328125q1.234375 1.3125 1.234375 3.703125q0 0.15625 0 0.4375l-7.21875 0q0.09375 1.59375 0.90625 2.453125q0.8125 0.84375 2.015625 0.84375q0.90625 0 1.546875 -0.46875q0.640625 -0.484375 1.015625 -1.515625zm-5.390625 -2.65625l5.40625 0q-0.109375 -1.21875 -0.625 -1.828125q-0.78125 -0.953125 -2.03125 -0.953125q-1.125 0 -1.90625 0.765625q-0.765625 0.75 -0.84375 2.015625zm12.719467 4.296875l0.234375 1.453125q-0.6875 0.140625 -1.234375 0.140625q-0.890625 0 -1.390625 -0.28125q-0.484375 -0.28125 -0.6875 -0.734375q-0.203125 -0.46875 -0.203125 -1.9375l0 -5.578125l-1.203125 0l0 -1.265625l1.203125 0l0 -2.390625l1.625 -0.984375l0 3.375l1.65625 0l0 1.265625l-1.65625 0l0 5.671875q0 0.6875 0.078125 0.890625q0.09375 0.203125 0.28125 0.328125q0.203125 0.109375 0.578125 0.109375q0.265625 0 0.71875 -0.0625zm5.183304 0l0.234375 1.453125q-0.6875 0.140625 -1.234375 0.140625q-0.890625 0 -1.390625 -0.28125q-0.484375 -0.28125 -0.6875 -0.734375q-0.203125 -0.46875 -0.203125 -1.9375l0 -5.578125l-1.203125 0l0 -1.265625l1.203125 0l0 -2.390625l1.625 -0.984375l0 3.375l1.65625 0l0 1.265625l-1.65625 0l0 5.671875q0 0.6875 0.078125 0.890625q0.09375 0.203125 0.28125 0.328125q0.203125 0.109375 0.578125 0.109375q0.265625 0 0.71875 -0.0625zm8.230179 -1.640625l1.6875 0.203125q-0.40625 1.484375 -1.484375 2.3125q-1.078125 0.8125 -2.765625 0.8125q-2.125 0 -3.375 -1.296875q-1.234375 -1.3125 -1.234375 -3.671875q0 -2.453125 1.25 -3.796875q1.265625 -1.34375 3.265625 -1.34375q1.9375 0 3.15625 1.328125q1.234375 1.3125 1.234375 3.703125q0 0.15625 0 0.4375l-7.21875 0q0.09375 1.59375 0.90625 2.453125q0.8125 0.84375 2.015625 0.84375q0.90625 0 1.546875 -0.46875q0.640625 -0.484375 1.015625 -1.515625zm-5.390625 -2.65625l5.40625 0q-0.109375 -1.21875 -0.625 -1.828125q-0.78125 -0.953125 -2.03125 -0.953125q-1.125 0 -1.90625 0.765625q-0.765625 0.75 -0.84375 2.015625zm9.125717 5.765625l0 -9.671875l1.46875 0l0 1.46875q0.5625 -1.03125 1.03125 -1.359375q0.484375 -0.328125 1.0625 -0.328125q0.828125 0 1.6875 0.53125l-0.5625 1.515625q-0.609375 -0.359375 -1.203125 -0.359375q-0.546875 0 -0.96875 0.328125q-0.421875 0.328125 -0.609375 0.890625q-0.28125 0.875 -0.28125 1.921875l0 5.0625l-1.625 0z" fill-rule="nonzero"/><path fill="#f6b26b" d="m395.90814 223.75066l201.3858 0l0 60.03151l-201.3858 0z" fill-rule="evenodd"/><path stroke="#000000" stroke-width="2.0" stroke-linejoin="round" stroke-linecap="butt" d="m395.90814 223.75066l201.3858 0l0 60.03151l-201.3858 0z" fill-rule="evenodd"/><path fill="#ffffff" d="m465.9801 260.6864l5.125 -13.359375l1.90625 0l5.46875 13.359375l-2.015625 0l-1.546875 -4.046875l-5.59375 0l-1.46875 4.046875l-1.875 0zm3.859375 -5.484375l4.53125 0l-1.40625 -3.703125q-0.625 -1.6875 -0.9375 -2.765625q-0.265625 1.28125 -0.71875 2.546875l-1.46875 3.921875zm16.162323 1.9375l1.609375 0.21875q-0.265625 1.65625 -1.359375 2.609375q-1.078125 0.9375 -2.671875 0.9375q-1.984375 0 -3.1875 -1.296875q-1.203125 -1.296875 -1.203125 -3.71875q0 -1.578125 0.515625 -2.75q0.515625 -1.171875 1.578125 -1.75q1.0625 -0.59375 2.3125 -0.59375q1.578125 0 2.578125 0.796875q1.0 0.796875 1.28125 2.265625l-1.59375 0.234375q-0.234375 -0.96875 -0.8125 -1.453125q-0.578125 -0.5 -1.390625 -0.5q-1.234375 0 -2.015625 0.890625q-0.78125 0.890625 -0.78125 2.8125q0 1.953125 0.75 2.84375q0.75 0.875 1.953125 0.875q0.96875 0 1.609375 -0.59375q0.65625 -0.59375 0.828125 -1.828125zm6.59375 2.078125l0.234375 1.453125q-0.6875 0.140625 -1.234375 0.140625q-0.890625 0 -1.390625 -0.28125q-0.484375 -0.28125 -0.6875 -0.734375q-0.203125 -0.46875 -0.203125 -1.9375l0 -5.578125l-1.203125 0l0 -1.265625l1.203125 0l0 -2.390625l1.625 -0.984375l0 3.375l1.65625 0l0 1.265625l-1.65625 0l0 5.671875q0 0.6875 0.078125 0.890625q0.09375 0.203125 0.28125 0.328125q0.203125 0.109375 0.578125 0.109375q0.265625 0 0.71875 -0.0625zm1.6051941 -10.0l0 -1.890625l1.640625 0l0 1.890625l-1.640625 0zm0 11.46875l0 -9.671875l1.640625 0l0 9.671875l-1.640625 0zm3.535431 -4.84375q0 -2.6875 1.484375 -3.96875q1.25 -1.078125 3.046875 -1.078125q2.0 0 3.265625 1.3125q1.265625 1.296875 1.265625 3.609375q0 1.859375 -0.5625 2.9375q-0.5625 1.0625 -1.640625 1.65625q-1.0625 0.59375 -2.328125 0.59375q-2.03125 0 -3.28125 -1.296875q-1.25 -1.3125 -1.25 -3.765625zm1.6875 0q0 1.859375 0.796875 2.796875q0.8125 0.921875 2.046875 0.921875q1.21875 0 2.03125 -0.921875q0.8125 -0.9375 0.8125 -2.84375q0 -1.796875 -0.8125 -2.71875q-0.8125 -0.921875 -2.03125 -0.921875q-1.234375 0 -2.046875 0.921875q-0.796875 0.90625 -0.796875 2.765625zm9.297607 4.84375l0 -9.671875l1.46875 0l0 1.375q1.0625 -1.59375 3.0780945 -1.59375q0.875 0 1.609375 0.3125q0.734375 0.3125 1.09375 0.828125q0.375 0.5 0.515625 1.203125q0.09375 0.453125 0.09375 1.59375l0 5.953125l-1.640625 0l0 -5.890625q0 -1.0 -0.203125 -1.484375q-0.1875 -0.5 -0.671875 -0.796875q-0.484375 -0.296875 -1.140625 -0.296875q-1.0468445 0 -1.8124695 0.671875q-0.75 0.65625 -0.75 2.515625l0 5.28125l-1.640625 0zm9.719452 -2.890625l1.625 -0.25q0.125 0.96875 0.75 1.5q0.625 0.515625 1.75 0.515625q1.125 0 1.671875 -0.453125q0.546875 -0.46875 0.546875 -1.09375q0 -0.546875 -0.484375 -0.875q-0.328125 -0.21875 -1.671875 -0.546875q-1.8125 -0.46875 -2.515625 -0.796875q-0.6875 -0.328125 -1.046875 -0.90625q-0.359375 -0.59375 -0.359375 -1.3125q0 -0.640625 0.296875 -1.1875q0.296875 -0.5625 0.8125 -0.921875q0.375 -0.28125 1.03125 -0.46875q0.671875 -0.203125 1.421875 -0.203125q1.140625 0 2.0 0.328125q0.859375 0.328125 1.265625 0.890625q0.421875 0.5625 0.578125 1.5l-1.609375 0.21875q-0.109375 -0.75 -0.640625 -1.171875q-0.515625 -0.421875 -1.46875 -0.421875q-1.140625 0 -1.625 0.375q-0.46875 0.375 -0.46875 0.875q0 0.3125 0.1875 0.578125q0.203125 0.265625 0.640625 0.4375q0.234375 0.09375 1.4375 0.421875q1.75 0.453125 2.4375 0.75q0.6875 0.296875 1.078125 0.859375q0.390625 0.5625 0.390625 1.40625q0 0.828125 -0.484375 1.546875q-0.46875 0.71875 -1.375 1.125q-0.90625 0.390625 -2.046875 0.390625q-1.875 0 -2.875 -0.78125q-0.984375 -0.78125 -1.25 -2.328125z" fill-rule="nonzero"/><path fill="#b7b7b7" d="m211.39893 329.73752l137.88977 0l0 44.346466l-137.88977 0z" fill-rule="evenodd"/><path stroke="#000000" stroke-width="2.0" stroke-linejoin="round" stroke-linecap="butt" d="m211.39893 329.73752l137.88977 0l0 44.346466l-137.88977 0z" fill-rule="evenodd"/><path fill="#ffffff" d="m268.29926 358.83075l0 -13.359375l5.046875 0q1.328125 0 2.03125 0.125q0.96875 0.171875 1.640625 0.640625q0.671875 0.453125 1.078125 1.28125q0.40625 0.828125 0.40625 1.828125q0 1.703125 -1.09375 2.890625q-1.078125 1.171875 -3.921875 1.171875l-3.421875 0l0 5.421875l-1.765625 0zm1.765625 -7.0l3.453125 0q1.71875 0 2.4375 -0.640625q0.71875 -0.640625 0.71875 -1.796875q0 -0.84375 -0.421875 -1.4375q-0.421875 -0.59375 -1.125 -0.78125q-0.4375 -0.125 -1.640625 -0.125l-3.421875 0l0 4.78125zm16.787323 5.8125q-0.921875 0.765625 -1.765625 1.09375q-0.828125 0.3125 -1.796875 0.3125q-1.59375 0 -2.453125 -0.78125q-0.859375 -0.78125 -0.859375 -1.984375q0 -0.71875 0.328125 -1.296875q0.328125 -0.59375 0.84375 -0.9375q0.53125 -0.359375 1.1875 -0.546875q0.46875 -0.125 1.453125 -0.25q1.984375 -0.234375 2.921875 -0.5625q0.015625 -0.34375 0.015625 -0.421875q0 -1.0 -0.46875 -1.421875q-0.625 -0.546875 -1.875 -0.546875q-1.15625 0 -1.703125 0.40625q-0.546875 0.40625 -0.8125 1.421875l-1.609375 -0.21875q0.21875 -1.015625 0.71875 -1.640625q0.5 -0.640625 1.453125 -0.984375q0.953125 -0.34375 2.1875 -0.34375q1.25 0 2.015625 0.296875q0.78125 0.28125 1.140625 0.734375q0.375 0.4375 0.515625 1.109375q0.078125 0.421875 0.078125 1.515625l0 2.1875q0 2.28125 0.109375 2.890625q0.109375 0.59375 0.40625 1.15625l-1.703125 0q-0.265625 -0.515625 -0.328125 -1.1875zm-0.140625 -3.671875q-0.890625 0.375 -2.671875 0.625q-1.015625 0.140625 -1.4375 0.328125q-0.421875 0.1875 -0.65625 0.53125q-0.21875 0.34375 -0.21875 0.78125q0 0.65625 0.5 1.09375q0.5 0.4375 1.453125 0.4375q0.9375 0 1.671875 -0.40625q0.75 -0.421875 1.09375 -1.140625q0.265625 -0.5625 0.265625 -1.640625l0 -0.609375zm4.2038574 -6.609375l0 -1.890625l1.640625 0l0 1.890625l-1.640625 0zm0 11.46875l0 -9.671875l1.640625 0l0 9.671875l-1.640625 0z" fill-rule="nonzero"/><path fill="#b7b7b7" d="m57.51705 391.84662l137.88977 0l0 44.346436l-137.88977 0z" fill-rule="evenodd"/><path stroke="#000000" stroke-width="2.0" stroke-linejoin="round" stroke-linecap="butt" d="m57.51705 391.84662l137.88977 0l0 44.346436l-137.88977 0z" fill-rule="evenodd"/><path fill="#ffffff" d="m99.99514 420.93985l0 -13.359375l9.015625 0l0 1.578125l-7.25 0l0 4.140625l6.265625 0l0 1.578125l-6.265625 0l0 6.0625l-1.765625 0zm11.099106 -11.46875l0 -1.890625l1.640625 0l0 1.890625l-1.640625 0zm0 11.46875l0 -9.671875l1.640625 0l0 9.671875l-1.640625 0zm4.097946 0l0 -13.359375l1.640625 0l0 13.359375l-1.640625 0zm4.191696 0l0 -13.359375l1.640625 0l0 4.796875q1.140625 -1.328125 2.890625 -1.328125q1.078125 0 1.859375 0.421875q0.796875 0.421875 1.140625 1.171875q0.34375 0.75 0.34375 2.171875l0 6.125l-1.640625 0l0 -6.125q0 -1.234375 -0.53125 -1.796875q-0.53125 -0.5625 -1.515625 -0.5625q-0.71875 0 -1.359375 0.390625q-0.640625 0.375 -0.921875 1.015625q-0.265625 0.640625 -0.265625 1.78125l0 5.296875l-1.640625 0zm9.766335 -4.84375q0 -2.6875 1.484375 -3.96875q1.25 -1.078125 3.046875 -1.078125q2.0 0 3.265625 1.3125q1.265625 1.296875 1.265625 3.609375q0 1.859375 -0.5625 2.9375q-0.5625 1.0625 -1.640625 1.65625q-1.0625 0.59375 -2.328125 0.59375q-2.03125 0 -3.28125 -1.296875q-1.25 -1.3125 -1.25 -3.765625zm1.6875 0q0 1.859375 0.796875 2.796875q0.8125 0.921875 2.046875 0.921875q1.21875 0 2.03125 -0.921875q0.8125 -0.9375 0.8125 -2.84375q0 -1.796875 -0.8125 -2.71875q-0.8125 -0.921875 -2.03125 -0.921875q-1.234375 0 -2.046875 0.921875q-0.796875 0.90625 -0.796875 2.765625zm20.199646 4.84375l-1.640625 0l0 -10.453125q-0.59375 0.5625 -1.5625 1.140625q-0.953125 0.5625 -1.71875 0.84375l0 -1.59375q1.375 -0.640625 2.40625 -1.5625q1.03125 -0.921875 1.453125 -1.78125l1.0625 0l0 13.40625z" fill-rule="nonzero"/><path fill="#b7b7b7" d="m211.39893 391.84662l137.88977 0l0 44.346436l-137.88977 0z" fill-rule="evenodd"/><path stroke="#000000" stroke-width="2.0" stroke-linejoin="round" stroke-linecap="butt" d="m211.39893 391.84662l137.88977 0l0 44.346436l-137.88977 0z" fill-rule="evenodd"/><path fill="#ffffff" d="m253.87701 420.93985l0 -13.359375l9.015625 0l0 1.578125l-7.25 0l0 4.140625l6.265625 0l0 1.578125l-6.265625 0l0 6.0625l-1.765625 0zm11.099121 -11.46875l0 -1.890625l1.640625 0l0 1.890625l-1.640625 0zm0 11.46875l0 -9.671875l1.640625 0l0 9.671875l-1.640625 0zm4.097931 0l0 -13.359375l1.640625 0l0 13.359375l-1.640625 0zm4.1917114 0l0 -13.359375l1.640625 0l0 4.796875q1.140625 -1.328125 2.890625 -1.328125q1.078125 0 1.859375 0.421875q0.796875 0.421875 1.140625 1.171875q0.34375 0.75 0.34375 2.171875l0 6.125l-1.640625 0l0 -6.125q0 -1.234375 -0.53125 -1.796875q-0.53125 -0.5625 -1.515625 -0.5625q-0.71875 0 -1.359375 0.390625q-0.640625 0.375 -0.921875 1.015625q-0.265625 0.640625 -0.265625 1.78125l0 5.296875l-1.640625 0zm9.766327 -4.84375q0 -2.6875 1.484375 -3.96875q1.25 -1.078125 3.046875 -1.078125q2.0 0 3.265625 1.3125q1.265625 1.296875 1.265625 3.609375q0 1.859375 -0.5625 2.9375q-0.5625 1.0625 -1.640625 1.65625q-1.0625 0.59375 -2.328125 0.59375q-2.03125 0 -3.28125 -1.296875q-1.25 -1.3125 -1.25 -3.765625zm1.6875 0q0 1.859375 0.796875 2.796875q0.8125 0.921875 2.046875 0.921875q1.21875 0 2.03125 -0.921875q0.8125 -0.9375 0.8125 -2.84375q0 -1.796875 -0.8125 -2.71875q-0.8125 -0.921875 -2.03125 -0.921875q-1.234375 0 -2.046875 0.921875q-0.796875 0.90625 -0.796875 2.765625zm22.637146 3.265625l0 1.578125l-8.828125 0q-0.015625 -0.59375 0.1875 -1.140625q0.34375 -0.90625 1.078125 -1.78125q0.75 -0.875 2.15625 -2.015625q2.171875 -1.78125 2.9375 -2.828125q0.765625 -1.046875 0.765625 -1.96875q0 -0.984375 -0.703125 -1.640625q-0.6875 -0.671875 -1.8125 -0.671875q-1.1875 0 -1.90625 0.71875q-0.703125 0.703125 -0.703125 1.953125l-1.6875 -0.171875q0.171875 -1.890625 1.296875 -2.875q1.140625 -0.984375 3.03125 -0.984375q1.921875 0 3.046875 1.0625q1.125 1.0625 1.125 2.640625q0 0.796875 -0.328125 1.578125q-0.328125 0.78125 -1.09375 1.640625q-0.75 0.84375 -2.53125 2.34375q-1.46875 1.234375 -1.890625 1.6875q-0.421875 0.4375 -0.6875 0.875l6.546875 0z" fill-rule="nonzero"/><path fill="#b7b7b7" d="m369.45236 391.84695l137.88977 0l0 44.346436l-137.88977 0z" fill-rule="evenodd"/><path stroke="#000000" stroke-width="2.0" stroke-linejoin="round" stroke-linecap="butt" d="m369.45236 391.84695l137.88977 0l0 44.346436l-137.88977 0z" fill-rule="evenodd"/><path fill="#ffffff" d="m411.93045 420.94016l0 -13.359375l9.015625 0l0 1.578125l-7.25 0l0 4.140625l6.265625 0l0 1.578125l-6.265625 0l0 6.0625l-1.765625 0zm11.099121 -11.46875l0 -1.890625l1.640625 0l0 1.890625l-1.640625 0zm0 11.46875l0 -9.671875l1.640625 0l0 9.671875l-1.640625 0zm4.097931 0l0 -13.359375l1.640625 0l0 13.359375l-1.640625 0zm4.1917114 0l0 -13.359375l1.640625 0l0 4.796875q1.140625 -1.328125 2.890625 -1.328125q1.078125 0 1.859375 0.421875q0.796875 0.421875 1.140625 1.171875q0.34375 0.75 0.34375 2.171875l0 6.125l-1.640625 0l0 -6.125q0 -1.234375 -0.53125 -1.796875q-0.53125 -0.5625 -1.515625 -0.5625q-0.71875 0 -1.359375 0.390625q-0.640625 0.375 -0.921875 1.015625q-0.265625 0.640625 -0.265625 1.78125l0 5.296875l-1.640625 0zm9.766327 -4.84375q0 -2.6875 1.484375 -3.96875q1.25 -1.078125 3.046875 -1.078125q2.0 0 3.265625 1.3125q1.265625 1.296875 1.265625 3.609375q0 1.859375 -0.5625 2.9375q-0.5625 1.0625 -1.640625 1.65625q-1.0625 0.59375 -2.328125 0.59375q-2.03125 0 -3.28125 -1.296875q-1.25 -1.3125 -1.25 -3.765625zm1.6875 0q0 1.859375 0.796875 2.796875q0.8125 0.921875 2.046875 0.921875q1.21875 0 2.03125 -0.921875q0.8125 -0.9375 0.8125 -2.84375q0 -1.796875 -0.8125 -2.71875q-0.8125 -0.921875 -2.03125 -0.921875q-1.234375 0 -2.046875 0.921875q-0.796875 0.90625 -0.796875 2.765625zm14.027771 1.3125l1.640625 -0.21875q0.28125 1.40625 0.953125 2.015625q0.6875 0.609375 1.65625 0.609375q1.15625 0 1.953125 -0.796875q0.796875 -0.796875 0.796875 -1.984375q0 -1.125 -0.734375 -1.859375q-0.734375 -0.734375 -1.875 -0.734375q-0.46875 0 -1.15625 0.171875l0.1875 -1.4375q0.15625 0.015625 0.265625 0.015625q1.046875 0 1.875 -0.546875q0.84375 -0.546875 0.84375 -1.671875q0 -0.90625 -0.609375 -1.5q-0.609375 -0.59375 -1.578125 -0.59375q-0.953125 0 -1.59375 0.609375q-0.640625 0.59375 -0.8125 1.796875l-1.640625 -0.296875q0.296875 -1.640625 1.359375 -2.546875q1.0625 -0.90625 2.65625 -0.90625q1.09375 0 2.0 0.46875q0.921875 0.46875 1.40625 1.28125q0.5 0.8125 0.5 1.71875q0 0.859375 -0.46875 1.578125q-0.46875 0.703125 -1.375 1.125q1.1875 0.28125 1.84375 1.140625q0.65625 0.859375 0.65625 2.15625q0 1.734375 -1.28125 2.953125q-1.265625 1.21875 -3.21875 1.21875q-1.765625 0 -2.921875 -1.046875q-1.15625 -1.046875 -1.328125 -2.71875z" fill-rule="nonzero"/><path fill="#ffd966" d="m57.51705 454.49872l137.88977 0l0 44.346466l-137.88977 0z" fill-rule="evenodd"/><path stroke="#000000" stroke-width="2.0" stroke-linejoin="round" stroke-linecap="butt" d="m57.51705 454.49872l137.88977 0l0 44.346466l-137.88977 0z" fill-rule="evenodd"/><path fill="#000000" d="m100.40045 483.59195l0 -13.359375l1.8125 0l7.015625 10.484375l0 -10.484375l1.6875 0l0 13.359375l-1.8125 0l-7.015625 -10.5l0 10.5l-1.6875 0zm19.910446 -3.109375l1.6875076 0.203125q-0.40625 1.484375 -1.4843826 2.3125q-1.078125 0.8125 -2.765625 0.8125q-2.125 0 -3.375 -1.296875q-1.234375 -1.3125 -1.234375 -3.671875q0 -2.453125 1.25 -3.796875q1.265625 -1.34375 3.265625 -1.34375q1.9375 0 3.15625 1.328125q1.2343826 1.3125 1.2343826 3.703125q0 0.15625 0 0.4375l-7.2187576 0q0.09375 1.59375 0.90625 2.453125q0.8125 0.84375 2.015625 0.84375q0.90625 0 1.546875 -0.46875q0.640625 -0.484375 1.015625 -1.515625zm-5.390625 -2.65625l5.40625 0q-0.109375 -1.21875 -0.625 -1.828125q-0.78125 -0.953125 -2.03125 -0.953125q-1.125 0 -1.90625 0.765625q-0.765625 0.75 -0.84375 2.015625zm12.719475 4.296875l0.234375 1.453125q-0.6875 0.140625 -1.234375 0.140625q-0.890625 0 -1.390625 -0.28125q-0.484375 -0.28125 -0.6875 -0.734375q-0.203125 -0.46875 -0.203125 -1.9375l0 -5.578125l-1.203125 0l0 -1.265625l1.203125 0l0 -2.390625l1.625 -0.984375l0 3.375l1.65625 0l0 1.265625l-1.65625 0l0 5.671875q0 0.6875 0.078125 0.890625q0.09375 0.203125 0.28125 0.328125q0.203125 0.109375 0.578125 0.109375q0.265625 0 0.71875 -0.0625zm0.9957962 -3.375q0 -2.6875 1.484375 -3.96875q1.25 -1.078125 3.046875 -1.078125q2.0 0 3.265625 1.3125q1.265625 1.296875 1.265625 3.609375q0 1.859375 -0.5625 2.9375q-0.5625 1.0625 -1.640625 1.65625q-1.0625 0.59375 -2.328125 0.59375q-2.03125 0 -3.28125 -1.296875q-1.25 -1.3125 -1.25 -3.765625zm1.6875 0q0 1.859375 0.796875 2.796875q0.8125 0.921875 2.046875 0.921875q1.21875 0 2.03125 -0.921875q0.8125 -0.9375 0.8125 -2.84375q0 -1.796875 -0.8125 -2.71875q-0.8125 -0.921875 -2.03125 -0.921875q-1.234375 0 -2.046875 0.921875q-0.796875 0.90625 -0.796875 2.765625zm20.199646 4.84375l-1.640625 0l0 -10.453125q-0.59375 0.5625 -1.5625 1.140625q-0.953125 0.5625 -1.71875 0.84375l0 -1.59375q1.375 -0.640625 2.40625 -1.5625q1.03125 -0.921875 1.453125 -1.78125l1.0625 0l0 13.40625z" fill-rule="nonzero"/><path fill="#000000" fill-opacity="0.0" d="m153.97638 179.73228l0 44.031494" fill-rule="evenodd"/><path stroke="#000000" stroke-width="1.0" stroke-linejoin="round" stroke-linecap="butt" d="m153.97638 179.73228l0 38.031494" fill-rule="evenodd"/><path fill="#000000" stroke="#000000" stroke-width="1.0" stroke-linecap="butt" d="m152.32465 217.76378l1.6517334 4.538101l1.6517334 -4.538101z" fill-rule="evenodd"/><path fill="#000000" fill-opacity="0.0" d="m395.90814 149.71654l-141.22835 0" fill-rule="evenodd"/><path stroke="#000000" stroke-width="1.0" stroke-linejoin="round" stroke-linecap="butt" d="m395.90814 149.71654l-135.22836 0" fill-rule="evenodd"/><path fill="#000000" stroke="#000000" stroke-width="1.0" stroke-linecap="butt" d="m260.67978 148.0648l-4.538086 1.6517334l4.538086 1.6517334z" fill-rule="evenodd"/><path fill="#000000" fill-opacity="0.0" d="m496.60104 223.75066l0 -44.031494" fill-rule="evenodd"/><path stroke="#000000" stroke-width="1.0" stroke-linejoin="round" stroke-linecap="butt" d="m496.60104 223.75066l0 -38.031494" fill-rule="evenodd"/><path fill="#000000" stroke="#000000" stroke-width="1.0" stroke-linecap="butt" d="m498.25278 185.71916l-1.6517334 -4.538101l-1.6517334 4.538101z" fill-rule="evenodd"/><path fill="#000000" fill-opacity="0.0" d="m254.6798 261.86615c19.076706 7.9334106 87.16786 26.045624 114.46019 47.600433c27.292328 21.55484 41.078186 68.107086 49.293793 81.728516" fill-rule="evenodd"/><path stroke="#000000" stroke-width="1.0" stroke-linejoin="round" stroke-linecap="butt" d="m254.6798 261.86615c19.076706 7.9334106 87.16786 26.045624 114.46022 47.600433c13.646149 10.777435 23.91568 27.8042 31.800629 43.839264c3.942505 8.017548 7.288849 15.787201 10.163025 22.403809c1.4371033 3.308258 2.7561646 6.3282776 3.9726868 8.94693c0.15203857 0.32730103 0.30249023 0.64837646 0.45141602 0.96292114l0.12408447 0.25946045" fill-rule="evenodd"/><path fill="#000000" stroke="#000000" stroke-width="1.0" stroke-linecap="butt" d="m414.18842 386.64484l3.567566 3.2549744l-0.640625 -4.7866516z" fill-rule="evenodd"/><path fill="#000000" fill-opacity="0.0" d="m195.40683 473.7997c66.677704 0.91308594 339.9445 36.36737 400.0662 5.478607c60.121643 -30.888763 -32.780212 -159.00928 -39.336243 -190.81113" fill-rule="evenodd"/><path stroke="#000000" stroke-width="1.0" stroke-linejoin="round" stroke-linecap="butt" d="m195.40683 473.7997c66.677704 0.91308594 339.9445 36.36737 400.0662 5.4785767c30.060791 -15.444397 21.865784 -55.196686 5.3360596 -95.06311c-8.264893 -19.933228 -18.613464 -39.89502 -27.305542 -56.861084c-4.3460693 -8.483032 -8.277954 -16.217133 -11.328247 -22.82431c-1.5252075 -3.3035583 -2.829895 -6.325409 -3.855835 -9.0182495c-0.12817383 -0.3366394 -0.2520752 -0.6680908 -0.371521 -0.99432373l-0.10638428 -0.29730225" fill-rule="evenodd"/><path fill="#000000" stroke="#000000" stroke-width="1.0" stroke-linecap="butt" d="m559.42523 293.75064l-2.8730469 -3.8818054l-0.29431152 4.8203735z" fill-rule="evenodd"/><path fill="#000000" fill-opacity="0.0" d="m459.85828 448.8294l99.968506 0l0 42.015747l-99.968506 0z" fill-rule="evenodd"/><path fill="#000000" d="m474.60828 475.84314q-1.40625 0 -2.515625 -0.625q-1.109375 -0.640625 -1.75 -1.765625q-0.625 -1.140625 -0.625 -2.609375q0 -1.5 0.625 -2.609375q0.640625 -1.125 1.75 -1.75q1.109375 -0.625 2.515625 -0.625q1.28125 0 2.296875 0.578125q1.015625 0.578125 1.625 1.6875q0.609375 1.109375 0.609375 2.71875q0 1.578125 -0.609375 2.703125q-0.59375 1.125 -1.609375 1.71875q-1.015625 0.578125 -2.3125 0.578125zm0.09375 -1.171875q1.046875 0 1.875 -0.46875q0.828125 -0.484375 1.296875 -1.34375q0.484375 -0.875 0.484375 -2.015625q0 -1.15625 -0.484375 -2.015625q-0.46875 -0.859375 -1.296875 -1.328125q-0.828125 -0.484375 -1.875 -0.484375q-1.03125 0 -1.859375 0.484375q-0.8125 0.46875 -1.296875 1.328125q-0.484375 0.859375 -0.484375 2.015625q0 1.140625 0.484375 2.015625q0.484375 0.859375 1.296875 1.34375q0.828125 0.46875 1.859375 0.46875zm3.6875 1.078125l0 -2.953125l0.125 -1.96875l-0.171875 -1.984375l0 -6.9375l1.3125 0l0 13.84375l-1.265625 0zm4.961426 0l0 -9.796875l1.328125 0l0 9.796875l-1.328125 0zm0.671875 -11.953125q-0.40625 0 -0.6875 -0.28125q-0.28125 -0.28125 -0.28125 -0.671875q0 -0.390625 0.28125 -0.65625q0.28125 -0.28125 0.6875 -0.28125q0.40625 0 0.6875 0.265625q0.28125 0.25 0.28125 0.65625q0 0.40625 -0.265625 0.6875q-0.265625 0.28125 -0.703125 0.28125zm6.9873047 12.046875q-1.21875 0 -2.3125 -0.34375q-1.078125 -0.34375 -1.6875 -0.875l0.59375 -1.046875q0.59375 0.453125 1.53125 0.78125q0.9375 0.328125 1.96875 0.328125q1.390625 0 2.0 -0.4375q0.625 -0.4375 0.625 -1.171875q0 -0.53125 -0.34375 -0.84375q-0.34375 -0.3125 -0.90625 -0.46875q-0.5625 -0.15625 -1.25 -0.265625q-0.6875 -0.109375 -1.375 -0.265625q-0.671875 -0.15625 -1.234375 -0.4375q-0.5625 -0.296875 -0.90625 -0.796875q-0.34375 -0.5 -0.34375 -1.34375q0 -0.796875 0.4375 -1.421875q0.453125 -0.640625 1.3125 -1.0q0.875 -0.375 2.125 -0.375q0.953125 0 1.90625 0.25q0.953125 0.25 1.5625 0.671875l-0.578125 1.0625q-0.65625 -0.453125 -1.40625 -0.640625q-0.734375 -0.203125 -1.484375 -0.203125q-1.328125 0 -1.953125 0.46875q-0.625 0.453125 -0.625 1.15625q0 0.5625 0.34375 0.875q0.34375 0.3125 0.90625 0.5q0.578125 0.171875 1.25 0.28125q0.6875 0.109375 1.375 0.28125q0.6875 0.15625 1.25 0.421875q0.5625 0.265625 0.90625 0.765625q0.359375 0.5 0.359375 1.296875q0 0.859375 -0.484375 1.484375q-0.46875 0.625 -1.375 0.96875q-0.90625 0.34375 -2.1875 0.34375zm11.526123 0q-1.265625 0 -2.296875 -0.578125q-1.03125 -0.59375 -1.640625 -1.703125q-0.59375 -1.109375 -0.59375 -2.71875q0 -1.609375 0.59375 -2.71875q0.59375 -1.109375 1.609375 -1.6875q1.03125 -0.578125 2.328125 -0.578125q1.390625 0 2.5 0.625q1.109375 0.625 1.75 1.765625q0.640625 1.125 0.640625 2.59375q0 1.484375 -0.640625 2.609375q-0.640625 1.125 -1.75 1.765625q-1.109375 0.625 -2.5 0.625zm-5.0625 3.53125l0 -13.421875l1.265625 0l0 2.953125l-0.125 1.953125l0.1875 1.984375l0 6.53125l-1.328125 0zm4.96875 -4.703125q1.046875 0 1.859375 -0.46875q0.828125 -0.484375 1.3125 -1.34375q0.484375 -0.875 0.484375 -2.015625q0 -1.140625 -0.484375 -2.0q-0.484375 -0.859375 -1.3125 -1.34375q-0.8125 -0.484375 -1.859375 -0.484375q-1.046875 0 -1.875 0.484375q-0.828125 0.484375 -1.3125 1.34375q-0.46875 0.859375 -0.46875 2.0q0 1.140625 0.46875 2.015625q0.484375 0.859375 1.3125 1.34375q0.828125 0.46875 1.875 0.46875zm13.764832 1.078125l0 -2.171875l-0.0625 -0.34375l0 -3.625q0 -1.25 -0.703125 -1.921875q-0.6875 -0.671875 -2.0625 -0.671875q-0.953125 0 -1.8125305 0.328125q-0.859375 0.3125 -1.453125 0.828125l-0.609375 -0.984375q0.75 -0.640625 1.796875 -0.984375q1.0469055 -0.34375 2.2031555 -0.34375q1.90625 0 2.9375 0.953125q1.03125 0.9375 1.03125 2.859375l0 6.078125l-1.265625 0zm-3.375 0.09375q-1.1094055 0 -1.9219055 -0.359375q-0.796875 -0.375 -1.234375 -1.015625q-0.421875 -0.640625 -0.421875 -1.484375q0 -0.765625 0.359375 -1.390625q0.359375 -0.625 1.1875 -1.0q0.84375 -0.390625 2.2344055 -0.390625l3.375 0l0 1.0l-3.34375 0q-1.4062805 0 -1.9687805 0.5q-0.546875 0.5 -0.546875 1.25q0 0.84375 0.65625 1.34375q0.65625 0.5 1.8281555 0.5q1.125 0 1.9375 -0.515625q0.8125 -0.515625 1.171875 -1.484375l0.3125 0.921875q-0.375 0.96875 -1.3125 1.546875q-0.921875 0.578125 -2.3125 0.578125zm11.335266 0q-1.375 0 -2.125 -0.75q-0.734375 -0.75 -0.734375 -2.109375l0 -9.1875l1.3125 0l0 9.125q0 0.84375 0.4375 1.3125q0.4375 0.46875 1.265625 0.46875q0.875 0 1.453125 -0.5l0.46875 0.953125q-0.390625 0.34375 -0.953125 0.515625q-0.546875 0.171875 -1.125 0.171875zm-4.625 -8.78125l0 -1.109375l6.0625 0l0 1.109375l-6.0625 0zm12.813538 8.78125q-1.453125 0 -2.59375 -0.640625q-1.140625 -0.640625 -1.796875 -1.765625q-0.65625 -1.140625 -0.65625 -2.59375q0 -1.46875 0.65625 -2.59375q0.65625 -1.125 1.796875 -1.75q1.140625 -0.640625 2.59375 -0.640625q1.25 0 2.25 0.484375q1.015625 0.484375 1.59375 1.453125l-0.984375 0.671875q-0.5 -0.734375 -1.25 -1.09375q-0.75 -0.359375 -1.625 -0.359375q-1.046875 0 -1.890625 0.484375q-0.828125 0.46875 -1.3125 1.328125q-0.484375 0.859375 -0.484375 2.015625q0 1.15625 0.484375 2.015625q0.484375 0.859375 1.3125 1.34375q0.84375 0.46875 1.890625 0.46875q0.875 0 1.625 -0.359375q0.75 -0.359375 1.25 -1.078125l0.984375 0.671875q-0.578125 0.953125 -1.59375 1.453125q-1.0 0.484375 -2.25 0.484375zm11.291626 -9.984375q1.203125 0 2.09375 0.46875q0.90625 0.453125 1.421875 1.390625q0.515625 0.921875 0.515625 2.34375l0 5.6875l-1.328125 0l0 -5.5625q0 -1.546875 -0.78125 -2.328125q-0.765625 -0.796875 -2.15625 -0.796875q-1.046875 0 -1.828125 0.421875q-0.765625 0.40625 -1.1875 1.203125q-0.421875 0.796875 -0.421875 1.90625l0 5.15625l-1.328125 0l0 -13.84375l1.328125 0l0 6.734375l-0.265625 -0.5q0.46875 -1.0625 1.484375 -1.671875q1.03125 -0.609375 2.453125 -0.609375z" fill-rule="nonzero"/><path fill="#000000" fill-opacity="0.0" d="m334.01575 251.4444l87.811035 47.77954l-18.519684 34.078735l-87.811035 -47.77954z" fill-rule="evenodd"/><path fill="#000000" d="m336.30118 280.42053l0.8878174 -1.633728l0.10058594 -0.28326416l1.4846802 -2.7319946q0.5147705 -0.94729614 0.24810791 -1.7327881q-0.24551392 -0.79174805 -1.2748718 -1.3518372q-0.727417 -0.39578247 -1.5067749 -0.4996643q-0.7718811 -0.117614746 -1.4337158 0.020355225l-0.036315918 -0.98031616q0.82385254 -0.1743164 1.7479248 -0.009490967q0.92407227 0.16482544 1.8024597 0.64276123q1.4273682 0.77667236 1.8217163 1.9162292q0.39437866 1.1395569 -0.38900757 2.5810852l-2.4918823 4.585388l-0.9607239 -0.5227356zm-2.576416 -1.3129272q-0.8234863 -0.4480896 -1.2918701 -1.0587158q-0.4684143 -0.6106262 -0.5366821 -1.2703552q-0.054534912 -0.6522827 0.29611206 -1.2975159q0.3133545 -0.57662964 0.8414917 -0.89404297q0.5281677 -0.31741333 1.3024597 -0.26965332q0.7880249 0.0552063 1.8448486 0.630249l2.5527954 1.3890381l-0.40286255 0.741333l-2.5253906 -1.3740845q-1.0705261 -0.582489 -1.6911621 -0.42211914q-0.6131897 0.14663696 -0.9190674 0.7095032q-0.34320068 0.63153076 -0.058013916 1.2847595q0.28518677 0.6532593 1.1635742 1.1312256q0.85095215 0.46298218 1.6637573 0.40716553q0.83395386 -0.062072754 1.5038757 -0.6403198l-0.13970947 0.813385q-0.6911011 0.5845337 -1.6298218 0.64297485q-0.917511 0.052215576 -1.9743347 -0.52282715zm9.280212 5.0494995q-1.097992 -0.5974121 -1.7015381 -1.5484009q-0.59606934 -0.9647217 -0.6350708 -2.0710144q-0.03152466 -1.1200256 0.56533813 -2.2183228q0.6043091 -1.11203 1.5535278 -1.6806335q0.9566345 -0.5823364 2.082428 -0.5923767q1.1257935 -0.010009766 2.2237854 0.58740234q0.9332886 0.507843 1.4866943 1.2892456q0.5671692 0.7888794 0.6109314 1.7554626l-1.0309143 0.097229004q-0.06466675 -0.76449585 -0.48562622 -1.331543q-0.41351318 -0.5807495 -1.0722961 -0.939209q-0.796051 -0.433136 -1.6213684 -0.41970825q-0.8253174 0.013397217 -1.5465393 0.45703125q-0.707489 0.45108032 -1.1849976 1.3297119q-0.47000122 0.8649292 -0.46383667 1.7043457q0.019927979 0.8468628 0.4498291 1.5610657q0.43737793 0.70047 1.2333984 1.1336365q0.6588135 0.35845947 1.3632812 0.40377808q0.71191406 0.03161621 1.3809204 -0.31588745l0.4788208 0.9187012q-0.82714844 0.47491455 -1.7971802 0.42736816q-0.9562988 -0.040039062 -1.8895874 -0.5478821zm7.8546753 4.2738953q-1.1528931 -0.62731934 -1.7701721 -1.5857849q-0.59606934 -0.96469116 -0.6350403 -2.070984q-0.031555176 -1.1200562 0.5653076 -2.2183533q0.5968628 -1.0982971 1.5186157 -1.6818237q0.9429321 -0.58981323 2.0275574 -0.6222534q1.0920715 -0.046142578 2.1076965 0.5064697q1.0430908 0.5675659 1.5917358 1.488678q0.5560913 0.90737915 0.54644775 2.005005q0.0040893555 1.1051025 -0.60025024 2.2171326q-0.03729248 0.06863403 -0.09579468 0.14355469q-0.03729248 0.06863403 -0.08206177 0.15100098l-6.423218 -3.494995l0.40289307 -0.741333l5.8879395 3.2037354l-0.5409546 0.079193115q0.43270874 -0.79626465 0.4253235 -1.600769q6.1035156E-5 -0.8182068 -0.40356445 -1.482544q-0.39620972 -0.67807007 -1.1785278 -1.1037292q-0.7548523 -0.41073608 -1.5527344 -0.38238525q-0.7904053 0.01461792 -1.4767151 0.45944214q-0.6725769 0.45230103 -1.1127625 1.2622986l-0.089538574 0.16473389q-0.45510864 0.8374634 -0.43518066 1.6843567q0.027374268 0.8331604 0.4847107 1.5622864q0.47854614 0.7228699 1.3432007 1.1933594q0.67251587 0.36590576 1.3757935 0.4461975q0.7244568 0.07397461 1.4185181 -0.18875122l0.21206665 0.95144653q-0.8149109 0.3215027 -1.7276306 0.23397827q-0.90527344 -0.10122681 -1.7836609 -0.5791626zm7.3358765 3.9915771q-0.9195862 -0.5003662 -1.6013184 -1.2092896q-0.66799927 -0.70144653 -0.9120178 -1.3323059l0.8719177 -0.5572815q0.26638794 0.58966064 0.83206177 1.2176514q0.57940674 0.635437 1.347992 1.0536499q1.0568237 0.5750122 1.6887817 0.49197388q0.64572144 -0.07559204 0.94415283 -0.62472534q0.22381592 -0.41186523 0.08987427 -0.7871399q-0.13394165 -0.37527466 -0.49972534 -0.71661377q-0.3446045 -0.3475952 -0.8213806 -0.7137451q-0.46932983 -0.3798828 -0.93118286 -0.77349854q-0.44812012 -0.38613892 -0.7542114 -0.8373108q-0.29238892 -0.44369507 -0.3517151 -0.9562683q-0.051879883 -0.52630615 0.2913208 -1.1578064q0.3282776 -0.60406494 0.9187927 -0.9053345q0.60424805 -0.29382324 1.398529 -0.21740723q0.8080139 0.08389282 1.7550049 0.5991821q0.7137146 0.38833618 1.322937 0.9688721q0.62298584 0.5879822 0.9254761 1.1439209l-0.879364 0.5710449q-0.30758667 -0.61209106 -0.7956848 -1.055542q-0.48065186 -0.45721436 -1.0433655 -0.7633972q-1.0019226 -0.545166 -1.6550903 -0.45584106q-0.6531677 0.08929443 -0.9441223 0.62472534q-0.23129272 0.42559814 -0.097351074 0.8008728q0.13394165 0.37527466 0.48480225 0.7440796q0.3508606 0.3687744 0.8139343 0.727478q0.47677612 0.3661499 0.91744995 0.7660217q0.45437622 0.40734863 0.76794434 0.8447571q0.3210144 0.42373657 0.38034058 0.9362793q0.05935669 0.51257324 -0.2763977 1.1303711q-0.35064697 0.6452637 -0.9611511 0.9178467q-0.61050415 0.27261353 -1.4385071 0.1600647q-0.8280029 -0.11254883 -1.7887268 -0.6352844zm6.8584595 3.7318115q-0.91955566 -0.5003662 -1.6012878 -1.2092896q-0.6680298 -0.70144653 -0.91204834 -1.3322754l0.8719177 -0.557312q0.26641846 0.58966064 0.8320923 1.2176514q0.5793762 0.635437 1.347992 1.0536499q1.0567932 0.5750427 1.6887817 0.49197388q0.6456909 -0.07556152 0.9441223 -0.62472534q0.22381592 -0.41186523 0.08987427 -0.7871399q-0.13394165 -0.37527466 -0.49972534 -0.71661377q-0.34457397 -0.3475952 -0.8213806 -0.7137451q-0.46929932 -0.3798828 -0.93115234 -0.77349854q-0.44815063 -0.38613892 -0.75424194 -0.8373108q-0.2923584 -0.44369507 -0.3517151 -0.9562683q-0.051849365 -0.52627563 0.2913208 -1.1578064q0.3282776 -0.60406494 0.9187927 -0.9053345q0.60424805 -0.29382324 1.398529 -0.21740723q0.8080139 0.08389282 1.7550354 0.5991821q0.7136841 0.38833618 1.322937 0.9688721q0.6229553 0.5879822 0.9254761 1.1439209l-0.87939453 0.5710449q-0.30755615 -0.61206055 -0.7956848 -1.055542q-0.48065186 -0.45721436 -1.0433655 -0.7633972q-1.0019226 -0.5451355 -1.6550598 -0.45584106q-0.6531677 0.08932495 -0.94415283 0.62472534q-0.2312622 0.42559814 -0.09732056 0.8008728q0.13391113 0.37527466 0.48480225 0.7440796q0.3508606 0.3687744 0.8139038 0.727478q0.47677612 0.3661499 0.91744995 0.7660217q0.45440674 0.40734863 0.76794434 0.8447876q0.32104492 0.42370605 0.3803711 0.9362488q0.059326172 0.51257324 -0.2763977 1.1303711q-0.3506775 0.6452637 -0.96118164 0.9178772q-0.61050415 0.27261353 -1.4385071 0.16003418q-0.8279724 -0.11254883 -1.7887268 -0.6352844zm9.530945 5.0970154l0.8878174 -1.633728l0.10058594 -0.28326416l1.4846802 -2.7319946q0.514801 -0.94729614 0.24810791 -1.7327881q-0.2454834 -0.79174805 -1.2748413 -1.3518372q-0.727417 -0.39578247 -1.5067749 -0.4996643q-0.7719116 -0.117614746 -1.4337158 0.020355225l-0.036315918 -0.98031616q0.823822 -0.1743164 1.7478943 -0.009490967q0.92407227 0.16482544 1.8024597 0.64276123q1.4273682 0.77667236 1.8217468 1.9162292q0.39434814 1.1395569 -0.3890381 2.5810852l-2.4918823 4.585388l-0.9607239 -0.5227356zm-2.5763855 -1.3129272q-0.8234863 -0.4480896 -1.2919006 -1.0587158q-0.4684143 -0.6106262 -0.5366821 -1.2703552q-0.054534912 -0.6522827 0.29611206 -1.2975159q0.3133545 -0.57662964 0.8415222 -0.89404297q0.5281677 -0.31741333 1.3024597 -0.26965332q0.7879944 0.0552063 1.8448181 0.630249l2.552826 1.3890381l-0.40289307 0.741333l-2.52536 -1.3740845q-1.0705566 -0.582489 -1.6911926 -0.42211914q-0.6131897 0.14663696 -0.9190674 0.7095032q-0.34320068 0.63153076 -0.058013916 1.2847595q0.2852173 0.6532593 1.1636047 1.1311951q0.85092163 0.4630127 1.6637268 0.40719604q0.8339844 -0.062072754 1.5038757 -0.6403198l-0.13970947 0.813385q-0.6911011 0.5845337 -1.6297913 0.64297485q-0.9175415 0.05218506 -1.9743347 -0.52282715z" fill-rule="nonzero"/><path fill="#000000" fill-opacity="0.0" d="m409.45145 180.7336l99.968506 0l0 38.771652l-99.968506 0z" fill-rule="evenodd"/><path fill="#000000" d="m423.52957 205.17172q-1.25 0 -2.234375 -0.546875q-0.984375 -0.5625 -1.546875 -1.515625q-0.5625 -0.96875 -0.5625 -2.21875q0 -1.265625 0.5625 -2.21875q0.5625 -0.96875 1.546875 -1.515625q0.984375 -0.546875 2.234375 -0.546875q1.0625 0 1.921875 0.421875q0.875 0.421875 1.375 1.25l-0.859375 0.578125q-0.421875 -0.640625 -1.0625 -0.9375q-0.640625 -0.3125 -1.390625 -0.3125q-0.90625 0 -1.625 0.40625q-0.71875 0.40625 -1.140625 1.140625q-0.40625 0.734375 -0.40625 1.734375q0 0.984375 0.40625 1.71875q0.421875 0.734375 1.140625 1.15625q0.71875 0.40625 1.625 0.40625q0.75 0 1.390625 -0.296875q0.640625 -0.3125 1.0625 -0.9375l0.859375 0.578125q-0.5 0.8125 -1.375 1.234375q-0.859375 0.421875 -1.921875 0.421875zm8.801514 0q-1.21875 0 -2.1875 -0.546875q-0.96875 -0.5625 -1.53125 -1.515625q-0.5625 -0.96875 -0.5625 -2.21875q0 -1.265625 0.5625 -2.21875q0.5625 -0.96875 1.515625 -1.515625q0.96875 -0.546875 2.203125 -0.546875q1.234375 0 2.203125 0.546875q0.96875 0.546875 1.515625 1.515625q0.5625 0.953125 0.5625 2.21875q0 1.25 -0.5625 2.21875q-0.546875 0.953125 -1.53125 1.515625q-0.96875 0.546875 -2.1875 0.546875zm0 -1.0q0.90625 0 1.609375 -0.40625q0.703125 -0.421875 1.109375 -1.15625q0.40625 -0.75 0.40625 -1.71875q0 -1.0 -0.40625 -1.734375q-0.40625 -0.734375 -1.109375 -1.140625q-0.703125 -0.40625 -1.59375 -0.40625q-0.90625 0 -1.609375 0.40625q-0.703125 0.40625 -1.125 1.140625q-0.40625 0.734375 -0.40625 1.734375q0 0.96875 0.40625 1.71875q0.421875 0.734375 1.125 1.15625q0.703125 0.40625 1.59375 0.40625zm17.094513 -7.5625q1.03125 0 1.78125 0.390625q0.765625 0.390625 1.1875 1.203125q0.421875 0.796875 0.421875 2.015625l0 4.875l-1.125 0l0 -4.765625q0 -1.328125 -0.640625 -2.0q-0.625 -0.6875 -1.78125 -0.6875q-0.859375 0 -1.5 0.359375q-0.625 0.359375 -0.96875 1.046875q-0.34375 0.671875 -0.34375 1.625l0 4.421875l-1.140625 0l0 -4.765625q0 -1.328125 -0.640625 -2.0q-0.640625 -0.6875 -1.796875 -0.6875q-0.84375 0 -1.484375 0.359375q-0.640625 0.359375 -0.984375 1.046875q-0.34375 0.671875 -0.34375 1.625l0 4.421875l-1.140625 0l0 -8.40625l1.09375 0l0 2.28125l-0.171875 -0.40625q0.375 -0.90625 1.234375 -1.421875q0.859375 -0.53125 2.03125 -0.53125q1.21875 0 2.078125 0.625q0.875 0.609375 1.125 1.84375l-0.4375 -0.171875q0.359375 -1.03125 1.296875 -1.65625q0.9375 -0.640625 2.25 -0.640625zm16.976013 0q1.03125 0 1.78125 0.390625q0.765625 0.390625 1.1875 1.203125q0.421875 0.796875 0.421875 2.015625l0 4.875l-1.125 0l0 -4.765625q0 -1.328125 -0.640625 -2.0q-0.625 -0.6875 -1.78125 -0.6875q-0.859375 0 -1.5 0.359375q-0.625 0.359375 -0.96875 1.046875q-0.34375 0.671875 -0.34375 1.625l0 4.421875l-1.140625 0l0 -4.765625q0 -1.328125 -0.640625 -2.0q-0.640625 -0.6875 -1.796875 -0.6875q-0.84375 0 -1.484375 0.359375q-0.640625 0.359375 -0.984375 1.046875q-0.34375 0.671875 -0.34375 1.625l0 4.421875l-1.140625 0l0 -8.40625l1.09375 0l0 2.28125l-0.171875 -0.40625q0.375 -0.90625 1.234375 -1.421875q0.859375 -0.53125 2.03125 -0.53125q1.21875 0 2.078125 0.625q0.875 0.609375 1.125 1.84375l-0.4375 -0.171875q0.359375 -1.03125 1.296875 -1.65625q0.9375 -0.640625 2.25 -0.640625zm6.4760437 8.484375l0 -8.40625l1.140625 0l0 8.40625l-1.140625 0zm0.578125 -10.25q-0.34375 0 -0.59375 -0.234375q-0.234375 -0.25 -0.234375 -0.59375q0 -0.328125 0.234375 -0.5625q0.25 -0.234375 0.59375 -0.234375q0.359375 0 0.59375 0.234375q0.234375 0.21875 0.234375 0.546875q0 0.359375 -0.234375 0.609375q-0.21875 0.234375 -0.59375 0.234375zm6.382141 10.328125q-1.171875 0 -1.8125 -0.640625q-0.640625 -0.640625 -0.640625 -1.8125l0 -7.875l1.125 0l0 7.8125q0 0.734375 0.375 1.140625q0.375 0.40625 1.09375 0.40625q0.75 0 1.234375 -0.4375l0.40625 0.8125q-0.328125 0.3125 -0.8125 0.453125q-0.46875 0.140625 -0.96875 0.140625zm-3.96875 -7.53125l0 -0.953125l5.203125 0l0 0.953125l-5.203125 0z" fill-rule="nonzero"/><path fill="#000000" fill-opacity="0.0" d="m262.3596 116.32809l141.22833 0l0 38.771645l-141.22833 0z" fill-rule="evenodd"/><path fill="#000000" d="m278.20334 140.68808l0 -1.859375l-0.046875 -0.296875l0 -3.109375q0 -1.078125 -0.609375 -1.640625q-0.59375 -0.578125 -1.765625 -0.578125q-0.828125 0 -1.5625 0.28125q-0.734375 0.265625 -1.25 0.703125l-0.5 -0.84375q0.640625 -0.546875 1.53125 -0.84375q0.890625 -0.296875 1.890625 -0.296875q1.625 0 2.515625 0.8125q0.890625 0.8125 0.890625 2.453125l0 5.21875l-1.09375 0zm-2.890625 0.078125q-0.9375 0 -1.640625 -0.3125q-0.703125 -0.3125 -1.078125 -0.859375q-0.359375 -0.546875 -0.359375 -1.28125q0 -0.65625 0.3125 -1.1875q0.3125 -0.53125 1.015625 -0.859375q0.71875 -0.328125 1.921875 -0.328125l2.90625 0l0 0.84375l-2.875 0q-1.21875 0 -1.6875 0.4375q-0.46875 0.421875 -0.46875 1.0625q0 0.71875 0.5625 1.15625q0.5625 0.4375 1.5625 0.4375q0.96875 0 1.65625 -0.4375q0.703125 -0.453125 1.015625 -1.28125l0.265625 0.78125q-0.328125 0.84375 -1.125 1.34375q-0.78125 0.484375 -1.984375 0.484375zm7.0650024 -0.078125l0 -11.875l1.140625 0l0 11.875l-1.140625 0zm6.992279 0.078125q-1.171875 0 -1.8125 -0.640625q-0.640625 -0.640625 -0.640625 -1.8125l0 -7.875l1.125 0l0 7.8125q0 0.734375 0.375 1.140625q0.375 0.40625 1.09375 0.40625q0.75 0 1.234375 -0.4375l0.40625 0.8125q-0.328125 0.3125 -0.8125 0.453125q-0.46875 0.140625 -0.96875 0.140625zm-3.96875 -7.53125l0 -0.953125l5.203125 0l0 0.953125l-5.203125 0zm11.082642 7.53125q-1.3125 0 -2.3125 -0.546875q-0.984375 -0.5625 -1.546875 -1.515625q-0.5625 -0.96875 -0.5625 -2.21875q0 -1.25 0.53125 -2.203125q0.546875 -0.96875 1.484375 -1.515625q0.9375 -0.5625 2.09375 -0.5625q1.1875 0 2.109375 0.546875q0.921875 0.53125 1.4375 1.5q0.53125 0.96875 0.53125 2.234375q0 0.078125 -0.015625 0.171875q0 0.078125 0 0.171875l-7.3125 0l0 -0.84375l6.703125 0l-0.4375 0.328125q0 -0.90625 -0.390625 -1.609375q-0.390625 -0.71875 -1.0625 -1.109375q-0.671875 -0.40625 -1.5625 -0.40625q-0.859375 0 -1.546875 0.40625q-0.6875 0.390625 -1.078125 1.109375q-0.375 0.71875 -0.375 1.640625l0 0.1875q0 0.953125 0.421875 1.6875q0.421875 0.71875 1.171875 1.140625q0.765625 0.40625 1.75 0.40625q0.765625 0 1.421875 -0.265625q0.671875 -0.28125 1.15625 -0.84375l0.640625 0.734375q-0.5625 0.671875 -1.40625 1.03125q-0.84375 0.34375 -1.84375 0.34375zm6.0858765 -0.078125l0 -8.40625l1.09375 0l0 2.296875l-0.109375 -0.40625q0.34375 -0.953125 1.171875 -1.453125q0.84375 -0.515625 2.078125 -0.515625l0 1.109375q-0.0625 0 -0.140625 0q-0.0625 -0.015625 -0.125 -0.015625q-1.328125 0 -2.078125 0.8125q-0.75 0.796875 -0.75 2.296875l0 4.28125l-1.140625 0zm10.929657 0l0 -1.859375l-0.046875 -0.296875l0 -3.109375q0 -1.078125 -0.609375 -1.640625q-0.59375 -0.578125 -1.765625 -0.578125q-0.828125 0 -1.5625 0.28125q-0.734375 0.265625 -1.25 0.703125l-0.5 -0.84375q0.640625 -0.546875 1.53125 -0.84375q0.890625 -0.296875 1.890625 -0.296875q1.625 0 2.515625 0.8125q0.890625 0.8125 0.890625 2.453125l0 5.21875l-1.09375 0zm-2.890625 0.078125q-0.9375 0 -1.640625 -0.3125q-0.703125 -0.3125 -1.078125 -0.859375q-0.359375 -0.546875 -0.359375 -1.28125q0 -0.65625 0.3125 -1.1875q0.3125 -0.53125 1.015625 -0.859375q0.71875 -0.328125 1.921875 -0.328125l2.90625 0l0 0.84375l-2.875 0q-1.21875 0 -1.6875 0.4375q-0.46875 0.421875 -0.46875 1.0625q0 0.71875 0.5625 1.15625q0.5625 0.4375 1.5625 0.4375q0.96875 0 1.65625 -0.4375q0.703125 -0.453125 1.015625 -1.28125l0.265625 0.78125q-0.328125 0.84375 -1.125 1.34375q-0.78125 0.484375 -1.984375 0.484375zm14.694519 0q-1.21875 0 -2.1875 -0.546875q-0.96875 -0.5625 -1.53125 -1.515625q-0.5625 -0.96875 -0.5625 -2.21875q0 -1.265625 0.5625 -2.21875q0.5625 -0.96875 1.515625 -1.515625q0.96875 -0.546875 2.203125 -0.546875q1.234375 0 2.203125 0.546875q0.96875 0.546875 1.515625 1.515625q0.5625 0.953125 0.5625 2.21875q0 1.25 -0.5625 2.21875q-0.546875 0.953125 -1.53125 1.515625q-0.96875 0.546875 -2.1875 0.546875zm0 -1.0q0.90625 0 1.609375 -0.40625q0.703125 -0.421875 1.109375 -1.15625q0.40625 -0.75 0.40625 -1.71875q0 -1.0 -0.40625 -1.734375q-0.40625 -0.734375 -1.109375 -1.140625q-0.703125 -0.40625 -1.59375 -0.40625q-0.90625 0 -1.609375 0.40625q-0.703125 0.40625 -1.125 1.140625q-0.40625 0.734375 -0.40625 1.734375q0 0.96875 0.40625 1.71875q0.421875 0.734375 1.125 1.15625q0.703125 0.40625 1.59375 0.40625zm14.364624 1.0q-1.3125 0 -2.3125 -0.546875q-0.984375 -0.5625 -1.546875 -1.515625q-0.5625 -0.96875 -0.5625 -2.21875q0 -1.25 0.53125 -2.203125q0.546875 -0.96875 1.484375 -1.515625q0.9375 -0.5625 2.09375 -0.5625q1.1875 0 2.109375 0.546875q0.921875 0.53125 1.4375 1.5q0.53125 0.96875 0.53125 2.234375q0 0.078125 -0.015625 0.171875q0 0.078125 0 0.171875l-7.3125 0l0 -0.84375l6.703125 0l-0.4375 0.328125q0 -0.90625 -0.390625 -1.609375q-0.390625 -0.71875 -1.0625 -1.109375q-0.671875 -0.40625 -1.5625 -0.40625q-0.859375 0 -1.546875 0.40625q-0.6875 0.390625 -1.078125 1.109375q-0.375 0.71875 -0.375 1.640625l0 0.1875q0 0.953125 0.421875 1.6875q0.421875 0.71875 1.171875 1.140625q0.765625 0.40625 1.75 0.40625q0.765625 0 1.421875 -0.265625q0.671875 -0.28125 1.15625 -0.84375l0.640625 0.734375q-0.5625 0.671875 -1.40625 1.03125q-0.84375 0.34375 -1.84375 0.34375zm8.351532 0q-1.046875 0 -1.984375 -0.296875q-0.921875 -0.296875 -1.4375 -0.734375l0.5 -0.90625q0.515625 0.390625 1.3125 0.671875q0.8125 0.28125 1.6875 0.28125q1.203125 0 1.71875 -0.375q0.53125 -0.375 0.53125 -1.0q0 -0.46875 -0.296875 -0.734375q-0.296875 -0.265625 -0.78125 -0.390625q-0.46875 -0.140625 -1.0625 -0.234375q-0.59375 -0.109375 -1.1875 -0.234375q-0.578125 -0.125 -1.0625 -0.375q-0.46875 -0.25 -0.765625 -0.671875q-0.296875 -0.4375 -0.296875 -1.15625q0 -0.6875 0.375 -1.234375q0.390625 -0.546875 1.125 -0.859375q0.75 -0.3125 1.828125 -0.3125q0.8125 0 1.625 0.21875q0.828125 0.21875 1.359375 0.5625l-0.5 0.921875q-0.5625 -0.390625 -1.203125 -0.546875q-0.640625 -0.171875 -1.28125 -0.171875q-1.140625 0 -1.671875 0.390625q-0.53125 0.390625 -0.53125 1.0q0 0.484375 0.296875 0.75q0.296875 0.265625 0.78125 0.421875q0.484375 0.15625 1.0625 0.25q0.59375 0.09375 1.171875 0.234375q0.59375 0.140625 1.078125 0.375q0.484375 0.21875 0.78125 0.640625q0.296875 0.421875 0.296875 1.125q0 0.734375 -0.40625 1.265625q-0.40625 0.53125 -1.1875 0.828125q-0.78125 0.296875 -1.875 0.296875zm8.198639 0q-1.171875 0 -1.8125 -0.640625q-0.640625 -0.640625 -0.640625 -1.8125l0 -7.875l1.125 0l0 7.8125q0 0.734375 0.375 1.140625q0.375 0.40625 1.09375 0.40625q0.75 0 1.234375 -0.4375l0.40625 0.8125q-0.328125 0.3125 -0.8125 0.453125q-0.46875 0.140625 -0.96875 0.140625zm-3.96875 -7.53125l0 -0.953125l5.203125 0l0 0.953125l-5.203125 0zm13.074127 7.453125l0 -1.859375l-0.046875 -0.296875l0 -3.109375q0 -1.078125 -0.609375 -1.640625q-0.59375 -0.578125 -1.765625 -0.578125q-0.828125 0 -1.5625 0.28125q-0.734375 0.265625 -1.25 0.703125l-0.5 -0.84375q0.640625 -0.546875 1.53125 -0.84375q0.890625 -0.296875 1.890625 -0.296875q1.625 0 2.515625 0.8125q0.890625 0.8125 0.890625 2.453125l0 5.21875l-1.09375 0zm-2.890625 0.078125q-0.9375 0 -1.640625 -0.3125q-0.703125 -0.3125 -1.078125 -0.859375q-0.359375 -0.546875 -0.359375 -1.28125q0 -0.65625 0.3125 -1.1875q0.3125 -0.53125 1.015625 -0.859375q0.71875 -0.328125 1.921875 -0.328125l2.90625 0l0 0.84375l-2.875 0q-1.21875 0 -1.6875 0.4375q-0.46875 0.421875 -0.46875 1.0625q0 0.71875 0.5625 1.15625q0.5625 0.4375 1.5625 0.4375q0.96875 0 1.65625 -0.4375q0.703125 -0.453125 1.015625 -1.28125l0.265625 0.78125q-0.328125 0.84375 -1.125 1.34375q-0.78125 0.484375 -1.984375 0.484375zm10.408783 0q-1.1875 0 -2.140625 -0.546875q-0.953125 -0.546875 -1.5 -1.5q-0.546875 -0.96875 -0.546875 -2.234375q0 -1.28125 0.546875 -2.234375q0.546875 -0.96875 1.5 -1.5q0.953125 -0.546875 2.140625 -0.546875q1.109375 0 1.984375 0.5q0.875 0.5 1.390625 1.453125q0.515625 0.953125 0.515625 2.328125q0 1.359375 -0.515625 2.328125q-0.5 0.953125 -1.375 1.453125q-0.875 0.5 -2.0 0.5zm0.09375 -1.0q0.890625 0 1.59375 -0.40625q0.71875 -0.421875 1.125 -1.15625q0.40625 -0.75 0.40625 -1.71875q0 -1.0 -0.40625 -1.734375q-0.40625 -0.734375 -1.125 -1.140625q-0.703125 -0.40625 -1.59375 -0.40625q-0.890625 0 -1.59375 0.40625q-0.703125 0.40625 -1.125 1.140625q-0.40625 0.734375 -0.40625 1.734375q0 0.96875 0.40625 1.71875q0.421875 0.734375 1.125 1.15625q0.703125 0.40625 1.59375 0.40625zm3.15625 0.921875l0 -2.53125l0.109375 -1.6875l-0.15625 -1.703125l0 -5.953125l1.140625 0l0 11.875l-1.09375 0zm7.6917725 0.078125q-1.21875 0 -2.1875 -0.546875q-0.96875 -0.5625 -1.53125 -1.515625q-0.5625 -0.96875 -0.5625 -2.21875q0 -1.265625 0.5625 -2.21875q0.5625 -0.96875 1.515625 -1.515625q0.96875 -0.546875 2.203125 -0.546875q1.234375 0 2.203125 0.546875q0.96875 0.546875 1.515625 1.515625q0.5625 0.953125 0.5625 2.21875q0 1.25 -0.5625 2.21875q-0.546875 0.953125 -1.53125 1.515625q-0.96875 0.546875 -2.1875 0.546875zm0 -1.0q0.90625 0 1.609375 -0.40625q0.703125 -0.421875 1.109375 -1.15625q0.40625 -0.75 0.40625 -1.71875q0 -1.0 -0.40625 -1.734375q-0.40625 -0.734375 -1.109375 -1.140625q-0.703125 -0.40625 -1.59375 -0.40625q-0.90625 0 -1.609375 0.40625q-0.703125 0.40625 -1.125 1.140625q-0.40625 0.734375 -0.40625 1.734375q0 0.96875 0.40625 1.71875q0.421875 0.734375 1.125 1.15625q0.703125 0.40625 1.59375 0.40625z" fill-rule="nonzero"/><path fill="#000000" fill-opacity="0.0" d="m152.73753 182.36089l99.968506 0l0 38.771667l-99.968506 0z" fill-rule="evenodd"/><path fill="#000000" d="m163.31566 206.72089l0 -8.40625l1.09375 0l0 2.296875l-0.109375 -0.40625q0.34375 -0.953125 1.171875 -1.453125q0.84375 -0.515625 2.078125 -0.515625l0 1.109375q-0.0625 0 -0.140625 0q-0.0625 -0.015625 -0.125 -0.015625q-1.328125 0 -2.078125 0.8125q-0.75 0.796875 -0.75 2.296875l0 4.28125l-1.140625 0zm9.786148 0.078125q-1.3125 0 -2.3125 -0.546875q-0.984375 -0.5625 -1.546875 -1.515625q-0.5625 -0.96875 -0.5625 -2.21875q0 -1.25 0.53125 -2.203125q0.546875 -0.96875 1.484375 -1.515625q0.9375 -0.5625 2.09375 -0.5625q1.1875 0 2.109375 0.546875q0.921875 0.53125 1.4375 1.5q0.53125 0.96875 0.53125 2.234375q0 0.078125 -0.015625 0.171875q0 0.078125 0 0.171875l-7.3125 0l0 -0.84375l6.703125 0l-0.4375 0.328125q0 -0.90625 -0.390625 -1.609375q-0.390625 -0.71875 -1.0625 -1.109375q-0.671875 -0.40625 -1.5625 -0.40625q-0.859375 0 -1.546875 0.40625q-0.6875 0.390625 -1.078125 1.109375q-0.375 0.71875 -0.375 1.640625l0 0.1875q0 0.953125 0.421875 1.6875q0.421875 0.71875 1.171875 1.140625q0.765625 0.40625 1.75 0.40625q0.765625 0 1.421875 -0.265625q0.671875 -0.28125 1.15625 -0.84375l0.640625 0.734375q-0.5625 0.671875 -1.40625 1.03125q-0.84375 0.34375 -1.84375 0.34375zm8.742142 0q-1.171875 0 -1.8125 -0.640625q-0.640625 -0.640625 -0.640625 -1.8125l0 -7.875l1.125 0l0 7.8125q0 0.734375 0.375 1.140625q0.375 0.40625 1.09375 0.40625q0.75 0 1.234375 -0.4375l0.40625 0.8125q-0.328125 0.3125 -0.8125 0.453125q-0.46875 0.140625 -0.96875 0.140625zm-3.96875 -7.53125l0 -0.953125l5.203125 0l0 0.953125l-5.203125 0zm10.942017 7.53125q-1.21875 0 -2.1875 -0.546875q-0.96875 -0.5625 -1.53125 -1.515625q-0.5625 -0.96875 -0.5625 -2.21875q0 -1.265625 0.5625 -2.21875q0.5625 -0.96875 1.515625 -1.515625q0.96875 -0.546875 2.203125 -0.546875q1.234375 0 2.203125 0.546875q0.96875 0.546875 1.515625 1.515625q0.5625 0.953125 0.5625 2.21875q0 1.25 -0.5625 2.21875q-0.546875 0.953125 -1.53125 1.515625q-0.96875 0.546875 -2.1875 0.546875zm0 -1.0q0.90625 0 1.609375 -0.40625q0.703125 -0.421875 1.109375 -1.15625q0.40625 -0.75 0.40625 -1.71875q0 -1.0 -0.40625 -1.734375q-0.40625 -0.734375 -1.109375 -1.140625q-0.703125 -0.40625 -1.59375 -0.40625q-0.90625 0 -1.609375 0.40625q-0.703125 0.40625 -1.125 1.140625q-0.40625 0.734375 -0.40625 1.734375q0 0.96875 0.40625 1.71875q0.421875 0.734375 1.125 1.15625q0.703125 0.40625 1.59375 0.40625zm6.594513 0.921875l0 -8.40625l1.09375 0l0 2.296875l-0.109375 -0.40625q0.34375 -0.953125 1.171875 -1.453125q0.84375 -0.515625 2.078125 -0.515625l0 1.109375q-0.0625 0 -0.140625 0q-0.0625 -0.015625 -0.125 -0.015625q-1.328125 0 -2.078125 0.8125q-0.75 0.796875 -0.75 2.296875l0 4.28125l-1.140625 0zm10.584885 -8.484375q1.015625 0 1.796875 0.390625q0.78125 0.390625 1.21875 1.203125q0.4375 0.796875 0.4375 2.015625l0 4.875l-1.140625 0l0 -4.765625q0 -1.328125 -0.671875 -2.0q-0.65625 -0.6875 -1.859375 -0.6875q-0.890625 0 -1.5625 0.359375q-0.65625 0.359375 -1.015625 1.046875q-0.359375 0.671875 -0.359375 1.625l0 4.421875l-1.140625 0l0 -8.40625l1.09375 0l0 2.3125l-0.171875 -0.4375q0.390625 -0.90625 1.265625 -1.421875q0.890625 -0.53125 2.109375 -0.53125zm11.784775 8.484375l0 -1.859375l-0.046875 -0.296875l0 -3.109375q0 -1.078125 -0.609375 -1.640625q-0.59375 -0.578125 -1.765625 -0.578125q-0.828125 0 -1.5625 0.28125q-0.734375 0.265625 -1.25 0.703125l-0.5 -0.84375q0.640625 -0.546875 1.53125 -0.84375q0.890625 -0.296875 1.890625 -0.296875q1.625 0 2.515625 0.8125q0.890625 0.8125 0.890625 2.453125l0 5.21875l-1.09375 0zm-2.890625 0.078125q-0.9375 0 -1.640625 -0.3125q-0.703125 -0.3125 -1.078125 -0.859375q-0.359375 -0.546875 -0.359375 -1.28125q0 -0.65625 0.3125 -1.1875q0.3125 -0.53125 1.015625 -0.859375q0.71875 -0.328125 1.921875 -0.328125l2.90625 0l0 0.84375l-2.875 0q-1.21875 0 -1.6875 0.4375q-0.46875 0.421875 -0.46875 1.0625q0 0.71875 0.5625 1.15625q0.5625 0.4375 1.5625 0.4375q0.96875 0 1.65625 -0.4375q0.703125 -0.453125 1.015625 -1.28125l0.265625 0.78125q-0.328125 0.84375 -1.125 1.34375q-0.78125 0.484375 -1.984375 0.484375z" fill-rule="nonzero"/><path fill="#000000" fill-opacity="0.0" d="m52.769028 71.385826l201.38583 0l0 40.409447l-201.38583 0z" fill-rule="evenodd"/><path fill="#000000" d="m61.612778 97.025826l5.40625 -12.125l2.765625 0l5.4375 12.125l-2.953125 0l-4.4375 -10.703125l1.109375 0l-4.453125 10.703125l-2.875 0zm2.703125 -2.59375l0.75 -2.140625l6.234375 0l0.765625 2.140625l-7.75 0zm11.976395 2.59375l0 -9.328125l2.578125 0l0 2.640625l-0.359375 -0.765625q0.40625 -0.984375 1.328125 -1.5q0.921875 -0.515625 2.234375 -0.515625l0 2.5q-0.171875 -0.015625 -0.3125 -0.015625q-0.140625 -0.015625 -0.296875 -0.015625q-1.109375 0 -1.796875 0.640625q-0.671875 0.625 -0.671875 1.953125l0 4.40625l-2.703125 0zm19.336548 -9.46875q1.109375 0 1.96875 0.453125q0.859375 0.4375 1.34375 1.34375q0.5 0.90625 0.5 2.328125l0 5.34375l-2.703125 0l0 -4.921875q0 -1.125 -0.46875 -1.65625q-0.46875 -0.546875 -1.3125 -0.546875q-0.59375 0 -1.0625 0.28125q-0.46875 0.265625 -0.734375 0.796875q-0.25 0.53125 -0.25 1.375l0 4.671875l-2.703125 0l0 -4.921875q0 -1.125 -0.46875 -1.65625q-0.453125 -0.546875 -1.296875 -0.546875q-0.59375 0 -1.0625 0.28125q-0.46875 0.265625 -0.734375 0.796875q-0.25 0.53125 -0.25 1.375l0 4.671875l-2.703125 0l0 -9.328125l2.578125 0l0 2.546875l-0.484375 -0.734375q0.484375 -0.953125 1.375 -1.453125q0.890625 -0.5 2.046875 -0.5q1.28125 0 2.234375 0.65625q0.96875 0.65625 1.28125 1.984375l-0.953125 -0.265625q0.46875 -1.078125 1.5 -1.71875q1.03125 -0.65625 2.359375 -0.65625zm11.9583435 9.46875l0 -1.8125l-0.171875 -0.40625l0 -3.25q0 -0.875 -0.53125 -1.359375q-0.53125 -0.484375 -1.625 -0.484375q-0.734375 0 -1.46875 0.234375q-0.71875 0.234375 -1.21875 0.625l-0.96875 -1.875q0.765625 -0.546875 1.84375 -0.84375q1.078125 -0.296875 2.171875 -0.296875q2.140625 0 3.3125 1.015625q1.1875 1.0 1.1875 3.140625l0 5.3125l-2.53125 0zm-2.84375 0.140625q-1.09375 0 -1.875 -0.375q-0.78125 -0.375 -1.203125 -1.015625q-0.40625 -0.640625 -0.40625 -1.4375q0 -0.828125 0.40625 -1.453125q0.40625 -0.625 1.28125 -0.96875q0.890625 -0.359375 2.3125 -0.359375l2.484375 0l0 1.5625l-2.1875 0q-0.953125 0 -1.3125 0.3125q-0.34375 0.3125 -0.34375 0.78125q0 0.53125 0.40625 0.828125q0.40625 0.296875 1.109375 0.296875q0.671875 0 1.203125 -0.3125q0.546875 -0.328125 0.796875 -0.953125l0.40625 1.25q-0.296875 0.90625 -1.078125 1.375q-0.765625 0.46875 -2.0 0.46875zm7.175766 -0.140625l0 -1.625l5.5 -6.515625l0.46875 0.890625l-5.84375 0l0 -2.078125l8.03125 0l0 1.640625l-5.515625 6.515625l-0.484375 -0.90625l6.15625 0l0 2.078125l-8.3125 0zm14.553406 0.140625q-1.59375 0 -2.796875 -0.625q-1.203125 -0.625 -1.875 -1.703125q-0.65625 -1.09375 -0.65625 -2.46875q0 -1.40625 0.65625 -2.484375q0.65625 -1.09375 1.78125 -1.703125q1.125 -0.625 2.546875 -0.625q1.359375 0 2.453125 0.59375q1.109375 0.578125 1.75 1.65625q0.640625 1.078125 0.640625 2.59375q0 0.15625 -0.015625 0.359375q-0.015625 0.1875 -0.03125 0.359375l-7.578125 0l0 -1.5625l6.15625 0l-1.046875 0.46875q0 -0.734375 -0.296875 -1.265625q-0.28125 -0.546875 -0.8125 -0.84375q-0.515625 -0.3125 -1.203125 -0.3125q-0.6875 0 -1.21875 0.3125q-0.53125 0.296875 -0.828125 0.84375q-0.296875 0.546875 -0.296875 1.296875l0 0.40625q0 0.765625 0.328125 1.34375q0.34375 0.578125 0.953125 0.890625q0.625 0.296875 1.453125 0.296875q0.75 0 1.3125 -0.21875q0.5625 -0.234375 1.03125 -0.671875l1.4375 1.546875q-0.640625 0.734375 -1.609375 1.125q-0.96875 0.390625 -2.234375 0.390625zm11.9652405 -9.609375q1.109375 0 1.984375 0.453125q0.875 0.4375 1.375 1.34375q0.515625 0.90625 0.515625 2.328125l0 5.34375l-2.703125 0l0 -4.921875q0 -1.125 -0.5 -1.65625q-0.484375 -0.546875 -1.390625 -0.546875q-0.640625 0 -1.15625 0.28125q-0.515625 0.265625 -0.796875 0.828125q-0.28125 0.546875 -0.28125 1.40625l0 4.609375l-2.703125 0l0 -9.328125l2.578125 0l0 2.59375l-0.484375 -0.78125q0.5 -0.9375 1.4375 -1.4375q0.9375 -0.515625 2.125 -0.515625zm12.036163 9.46875l0 -1.8125l-0.171875 -0.40625l0 -3.25q0 -0.875 -0.53125 -1.359375q-0.53125 -0.484375 -1.625 -0.484375q-0.734375 0 -1.46875 0.234375q-0.71875 0.234375 -1.21875 0.625l-0.96875 -1.875q0.765625 -0.546875 1.84375 -0.84375q1.078125 -0.296875 2.171875 -0.296875q2.140625 0 3.3125 1.015625q1.1875 1.0 1.1875 3.140625l0 5.3125l-2.53125 0zm-2.84375 0.140625q-1.09375 0 -1.875 -0.375q-0.78125 -0.375 -1.203125 -1.015625q-0.40625 -0.640625 -0.40625 -1.4375q0 -0.828125 0.40625 -1.453125q0.40625 -0.625 1.28125 -0.96875q0.890625 -0.359375 2.3125 -0.359375l2.484375 0l0 1.5625l-2.1875 0q-0.953125 0 -1.3125 0.3125q-0.34375 0.3125 -0.34375 0.78125q0 0.53125 0.40625 0.828125q0.40625 0.296875 1.109375 0.296875q0.671875 0 1.203125 -0.3125q0.546875 -0.328125 0.796875 -0.953125l0.40625 1.25q-0.296875 0.90625 -1.078125 1.375q-0.765625 0.46875 -2.0 0.46875zm17.157715 0q-1.5 0 -2.65625 -0.625q-1.140625 -0.625 -1.8125 -1.703125q-0.671875 -1.09375 -0.671875 -2.46875q0 -1.40625 0.671875 -2.484375q0.671875 -1.09375 1.8125 -1.703125q1.15625 -0.625 2.65625 -0.625q1.46875 0 2.625 0.625q1.171875 0.609375 1.828125 1.6875q0.65625 1.078125 0.65625 2.5q0 1.375 -0.65625 2.46875q-0.65625 1.078125 -1.828125 1.703125q-1.15625 0.625 -2.625 0.625zm0 -2.21875q0.671875 0 1.203125 -0.3125q0.546875 -0.3125 0.859375 -0.890625q0.3125 -0.578125 0.3125 -1.375q0 -0.8125 -0.3125 -1.390625q-0.3125 -0.578125 -0.859375 -0.890625q-0.53125 -0.3125 -1.203125 -0.3125q-0.6875 0 -1.21875 0.3125q-0.53125 0.3125 -0.859375 0.890625q-0.3125 0.578125 -0.3125 1.390625q0 0.796875 0.3125 1.375q0.328125 0.578125 0.859375 0.890625q0.53125 0.3125 1.21875 0.3125z" fill-rule="nonzero"/><path fill="#f6b26b" d="m181.22916 97.16645q-1.59375 0 -2.796875 -0.625q-1.203125 -0.625 -1.875 -1.703125q-0.65625 -1.09375 -0.65625 -2.46875q0 -1.40625 0.65625 -2.484375q0.65625 -1.09375 1.78125 -1.703125q1.125 -0.625 2.546875 -0.625q1.359375 0 2.453125 0.59375q1.109375 0.578125 1.75 1.65625q0.640625 1.078125 0.640625 2.59375q0 0.15625 -0.015625 0.359375q-0.015625 0.1875 -0.03125 0.359375l-7.578125 0l0 -1.5625l6.15625 0l-1.046875 0.46875q0 -0.734375 -0.296875 -1.265625q-0.28125 -0.546875 -0.8125 -0.84375q-0.515625 -0.3125 -1.203125 -0.3125q-0.6875 0 -1.21875 0.3125q-0.53125 0.296875 -0.828125 0.84375q-0.296875 0.546875 -0.296875 1.296875l0 0.40625q0 0.765625 0.328125 1.34375q0.34375 0.578125 0.953125 0.890625q0.625 0.296875 1.453125 0.296875q0.75 0 1.3125 -0.21875q0.5625 -0.234375 1.03125 -0.671875l1.4375 1.546875q-0.640625 0.734375 -1.609375 1.125q-0.96875 0.390625 -2.234375 0.390625zm9.4496155 0q-1.203125 0 -2.3125 -0.28125q-1.09375 -0.296875 -1.734375 -0.71875l0.90625 -1.953125q0.640625 0.40625 1.515625 0.65625q0.875 0.25 1.71875 0.25q0.9375 0 1.328125 -0.21875q0.390625 -0.234375 0.390625 -0.625q0 -0.328125 -0.3125 -0.484375q-0.296875 -0.171875 -0.796875 -0.265625q-0.5 -0.09375 -1.109375 -0.171875q-0.59375 -0.09375 -1.203125 -0.234375q-0.59375 -0.15625 -1.109375 -0.4375q-0.5 -0.296875 -0.796875 -0.796875q-0.296875 -0.515625 -0.296875 -1.3125q0 -0.875 0.5 -1.546875q0.515625 -0.6875 1.484375 -1.078125q0.96875 -0.390625 2.328125 -0.390625q0.953125 0 1.9375 0.21875q0.984375 0.203125 1.640625 0.609375l-0.890625 1.921875q-0.6875 -0.40625 -1.375 -0.546875q-0.671875 -0.15625 -1.3125 -0.15625q-0.90625 0 -1.328125 0.25q-0.40625 0.234375 -0.40625 0.625q0 0.34375 0.296875 0.515625q0.3125 0.171875 0.8125 0.28125q0.5 0.09375 1.09375 0.171875q0.59375 0.078125 1.203125 0.234375q0.609375 0.15625 1.09375 0.453125q0.5 0.28125 0.8125 0.78125q0.3125 0.484375 0.3125 1.28125q0 0.875 -0.515625 1.546875q-0.515625 0.65625 -1.5 1.046875q-0.984375 0.375 -2.375 0.375zm9.873062 0q-1.65625 0 -2.578125 -0.84375q-0.90625 -0.84375 -0.90625 -2.5l0 -8.1875l2.703125 0l0 8.15625q0 0.578125 0.3125 0.90625q0.3125 0.3125 0.84375 0.3125q0.640625 0 1.09375 -0.34375l0.734375 1.90625q-0.421875 0.296875 -1.0 0.453125q-0.578125 0.140625 -1.203125 0.140625zm-4.921875 -7.171875l0 -2.078125l6.46875 0l0 2.078125l-6.46875 0zm14.365814 7.03125l0 -1.8125l-0.171875 -0.40625l0 -3.25q0 -0.875 -0.53125 -1.359375q-0.53125 -0.484375 -1.625 -0.484375q-0.734375 0 -1.46875 0.234375q-0.71875 0.234375 -1.21875 0.625l-0.96875 -1.875q0.765625 -0.546875 1.84375 -0.84375q1.078125 -0.296875 2.171875 -0.296875q2.140625 0 3.3125 1.015625q1.1875 1.0 1.1875 3.140625l0 5.3125l-2.53125 0zm-2.84375 0.140625q-1.09375 0 -1.875 -0.375q-0.78125 -0.375 -1.203125 -1.015625q-0.40625 -0.640625 -0.40625 -1.4375q0 -0.828125 0.40625 -1.453125q0.40625 -0.625 1.28125 -0.96875q0.890625 -0.359375 2.3125 -0.359375l2.484375 0l0 1.5625l-2.1875 0q-0.953125 0 -1.3125 0.3125q-0.34375 0.3125 -0.34375 0.78125q0 0.53125 0.40625 0.828125q0.40625 0.296875 1.109375 0.296875q0.671875 0 1.203125 -0.3125q0.546875 -0.328125 0.796875 -0.953125l0.40625 1.25q-0.296875 0.90625 -1.078125 1.375q-0.765625 0.46875 -2.0 0.46875zm11.885727 0q-1.3125 0 -2.375 -0.59375q-1.0625 -0.609375 -1.671875 -1.671875q-0.609375 -1.078125 -0.609375 -2.53125q0 -1.484375 0.609375 -2.546875q0.609375 -1.078125 1.671875 -1.671875q1.0625 -0.59375 2.375 -0.59375q1.171875 0 2.0625 0.53125q0.890625 0.515625 1.375 1.578125q0.484375 1.046875 0.484375 2.703125q0 1.625 -0.46875 2.6875q-0.46875 1.0625 -1.34375 1.59375q-0.875 0.515625 -2.109375 0.515625zm0.46875 -2.21875q0.65625 0 1.1875 -0.3125q0.546875 -0.3125 0.859375 -0.890625q0.328125 -0.578125 0.328125 -1.375q0 -0.8125 -0.328125 -1.390625q-0.3125 -0.578125 -0.859375 -0.890625q-0.53125 -0.3125 -1.1875 -0.3125q-0.671875 0 -1.21875 0.3125q-0.53125 0.3125 -0.859375 0.890625q-0.3125 0.578125 -0.3125 1.390625q0 0.796875 0.3125 1.375q0.328125 0.578125 0.859375 0.890625q0.546875 0.3125 1.21875 0.3125zm2.4375 2.078125l0 -1.90625l0.0625 -2.765625l-0.171875 -2.765625l0 -5.421875l2.703125 0l0 12.859375l-2.59375 0zm9.522247 0.140625q-1.5 0 -2.65625 -0.625q-1.140625 -0.625 -1.8125 -1.703125q-0.671875 -1.09375 -0.671875 -2.46875q0 -1.40625 0.671875 -2.484375q0.671875 -1.09375 1.8125 -1.703125q1.15625 -0.625 2.65625 -0.625q1.46875 0 2.625 0.625q1.171875 0.609375 1.828125 1.6875q0.65625 1.078125 0.65625 2.5q0 1.375 -0.65625 2.46875q-0.65625 1.078125 -1.828125 1.703125q-1.15625 0.625 -2.625 0.625zm0 -2.21875q0.671875 0 1.203125 -0.3125q0.546875 -0.3125 0.859375 -0.890625q0.3125 -0.578125 0.3125 -1.375q0 -0.8125 -0.3125 -1.390625q-0.3125 -0.578125 -0.859375 -0.890625q-0.53125 -0.3125 -1.203125 -0.3125q-0.6875 0 -1.21875 0.3125q-0.53125 0.3125 -0.859375 0.890625q-0.3125 0.578125 -0.3125 1.390625q0 0.796875 0.3125 1.375q0.328125 0.578125 0.859375 0.890625q0.53125 0.3125 1.21875 0.3125z" fill-rule="nonzero"/><path fill="#000000" fill-opacity="0.0" d="m225.27296 9.485564l198.80315 0l0 45.259842l-198.80315 0z" fill-rule="evenodd"/><path fill="#000000" d="m243.33546 39.309315q-1.828125 0 -3.375 -0.578125q-1.546875 -0.578125 -2.6875 -1.625q-1.125 -1.0625 -1.75 -2.484375q-0.625 -1.4375 -0.625 -3.125q0 -1.703125 0.625 -3.109375q0.625 -1.421875 1.75 -2.484375q1.140625 -1.0625 2.6875 -1.625q1.546875 -0.578125 3.359375 -0.578125q1.828125 0 3.359375 0.578125q1.546875 0.5625 2.671875 1.625q1.125 1.0625 1.75 2.484375q0.640625 1.40625 0.640625 3.109375q0 1.6875 -0.640625 3.125q-0.625 1.421875 -1.75 2.484375q-1.125 1.046875 -2.671875 1.625q-1.53125 0.578125 -3.34375 0.578125zm-0.015625 -4.078125q0.703125 0 1.3125 -0.25q0.609375 -0.265625 1.0625 -0.734375q0.453125 -0.484375 0.703125 -1.171875q0.265625 -0.703125 0.265625 -1.578125q0 -0.875 -0.265625 -1.5625q-0.25 -0.6875 -0.703125 -1.171875q-0.453125 -0.484375 -1.0625 -0.734375q-0.609375 -0.265625 -1.3125 -0.265625q-0.703125 0 -1.3125 0.265625q-0.609375 0.25 -1.078125 0.734375q-0.453125 0.484375 -0.71875 1.171875q-0.25 0.6875 -0.25 1.5625q0 0.875 0.25 1.578125q0.265625 0.6875 0.71875 1.171875q0.46875 0.46875 1.078125 0.734375q0.609375 0.25 1.3125 0.25zm16.656662 3.734375l0 -14.9375l7.1875 0q2.09375 0 3.609375 0.6875q1.53125 0.6875 2.359375 1.953125q0.828125 1.265625 0.828125 3.0q0 1.71875 -0.828125 2.984375q-0.828125 1.25 -2.359375 1.953125q-1.515625 0.6875 -3.609375 0.6875l-4.390625 0l2.234375 -2.15625l0 5.828125l-5.03125 0zm5.03125 -5.265625l-2.234375 -2.28125l4.0625 0q1.046875 0 1.546875 -0.46875q0.5 -0.46875 0.5 -1.28125q0 -0.8125 -0.5 -1.28125q-0.5 -0.46875 -1.546875 -0.46875l-4.0625 0l2.234375 -2.28125l0 8.0625zm17.401855 5.265625l0 -2.0625l-0.34375 -0.5625l0 -3.921875q0 -0.859375 -0.53125 -1.296875q-0.515625 -0.453125 -1.6875 -0.453125q-0.78125 0 -1.59375 0.25q-0.8125 0.234375 -1.390625 0.671875l-1.53125 -3.1875q1.015625 -0.640625 2.4375 -0.96875q1.4375 -0.34375 2.8125 -0.34375q3.0 0 4.65625 1.34375q1.65625 1.34375 1.65625 4.265625l0 6.265625l-4.484375 0zm-3.3125 0.21875q-1.421875 0 -2.390625 -0.484375q-0.953125 -0.5 -1.453125 -1.3125q-0.484375 -0.828125 -0.484375 -1.828125q0 -1.140625 0.578125 -1.921875q0.578125 -0.796875 1.765625 -1.203125q1.1875 -0.40625 3.0 -0.40625l2.421875 0l0 2.328125l-1.65625 0q-0.765625 0 -1.125 0.25q-0.34375 0.25 -0.34375 0.734375q0 0.40625 0.296875 0.671875q0.3125 0.265625 0.84375 0.265625q0.5 0 0.90625 -0.265625q0.421875 -0.265625 0.609375 -0.84375l0.625 1.421875q-0.28125 1.3125 -1.1875 1.953125q-0.890625 0.640625 -2.40625 0.640625zm15.217072 0q-1.515625 0 -2.8125 -0.734375q-1.28125 -0.75 -2.0625 -2.09375q-0.765625 -1.359375 -0.765625 -3.234375q0 -1.875 0.765625 -3.21875q0.78125 -1.359375 2.0625 -2.078125q1.296875 -0.734375 2.8125 -0.734375q1.53125 0 2.515625 0.65625q0.984375 0.640625 1.453125 1.984375q0.46875 1.328125 0.46875 3.390625q0 2.09375 -0.4375 3.4375q-0.4375 1.34375 -1.40625 1.984375q-0.96875 0.640625 -2.59375 0.640625zm1.15625 -3.765625q0.53125 0 0.953125 -0.25q0.421875 -0.25 0.671875 -0.765625q0.265625 -0.53125 0.265625 -1.28125q0 -0.765625 -0.265625 -1.265625q-0.25 -0.5 -0.671875 -0.75q-0.421875 -0.265625 -0.953125 -0.265625q-0.546875 0 -0.96875 0.265625q-0.421875 0.25 -0.6875 0.75q-0.25 0.5 -0.25 1.265625q0 0.75 0.25 1.28125q0.265625 0.515625 0.6875 0.765625q0.421875 0.25 0.96875 0.25zm2.046875 3.546875l0 -1.578125l-0.03125 -4.265625l-0.203125 -4.265625l0 -5.71875l4.8125 0l0 15.828125l-4.578125 0zm6.708252 0l0 -11.671875l4.59375 0l0 3.53125l-0.75 -1.015625q0.53125 -1.359375 1.703125 -2.03125q1.171875 -0.6875 2.8125 -0.6875l0 4.265625q-0.3125 -0.046875 -0.5625 -0.0625q-0.25 -0.03125 -0.5 -0.03125q-1.09375 0 -1.78125 0.578125q-0.6875 0.5625 -0.6875 1.9375l0 5.1875l-4.828125 0zm16.148163 0l0 -2.0625l-0.34375 -0.5625l0 -3.921875q0 -0.859375 -0.53125 -1.296875q-0.515625 -0.453125 -1.6875 -0.453125q-0.78125 0 -1.59375 0.25q-0.8125 0.234375 -1.390625 0.671875l-1.53125 -3.1875q1.015625 -0.640625 2.4375 -0.96875q1.4375 -0.34375 2.8125 -0.34375q3.0 0 4.65625 1.34375q1.65625 1.34375 1.65625 4.265625l0 6.265625l-4.484375 0zm-3.3125 0.21875q-1.421875 0 -2.390625 -0.484375q-0.953125 -0.5 -1.453125 -1.3125q-0.484375 -0.828125 -0.484375 -1.828125q0 -1.140625 0.578125 -1.921875q0.578125 -0.796875 1.765625 -1.203125q1.1875 -0.40625 3.0 -0.40625l2.421875 0l0 2.328125l-1.65625 0q-0.765625 0 -1.125 0.25q-0.34375 0.25 -0.34375 0.734375q0 0.40625 0.296875 0.671875q0.3125 0.265625 0.84375 0.265625q0.5 0 0.90625 -0.265625q0.421875 -0.265625 0.609375 -0.84375l0.625 1.421875q-0.28125 1.3125 -1.1875 1.953125q-0.890625 0.640625 -2.40625 0.640625zm3.765625 -12.953125q-0.59375 0 -1.0625 -0.1875q-0.453125 -0.1875 -0.828125 -0.4375q-0.375 -0.25 -0.671875 -0.4375q-0.296875 -0.1875 -0.59375 -0.1875q-0.40625 0 -0.671875 0.28125q-0.25 0.265625 -0.28125 0.75l-2.28125 0q0.03125 -1.671875 0.796875 -2.671875q0.78125 -1.015625 2.140625 -1.015625q0.59375 0 1.046875 0.203125q0.46875 0.1875 0.84375 0.4375q0.375 0.234375 0.671875 0.4375q0.3125 0.1875 0.59375 0.1875q0.421875 0 0.671875 -0.265625q0.265625 -0.265625 0.28125 -0.71875l2.28125 0q-0.015625 1.625 -0.796875 2.625q-0.78125 1.0 -2.140625 1.0zm12.498322 12.953125q-1.984375 0 -3.515625 -0.78125q-1.515625 -0.78125 -2.390625 -2.140625q-0.875 -1.375 -0.875 -3.140625q0 -1.765625 0.875 -3.125q0.875 -1.375 2.390625 -2.140625q1.53125 -0.765625 3.515625 -0.765625q1.984375 0 3.515625 0.765625q1.53125 0.765625 2.390625 2.140625q0.875 1.359375 0.875 3.125q0 1.765625 -0.875 3.140625q-0.859375 1.359375 -2.390625 2.140625q-1.53125 0.78125 -3.515625 0.78125zm0 -3.765625q0.53125 0 0.953125 -0.25q0.421875 -0.25 0.671875 -0.765625q0.265625 -0.53125 0.265625 -1.28125q0 -0.765625 -0.265625 -1.265625q-0.25 -0.5 -0.671875 -0.75q-0.421875 -0.265625 -0.953125 -0.265625q-0.53125 0 -0.96875 0.265625q-0.421875 0.25 -0.6875 0.75q-0.25 0.5 -0.25 1.265625q0 0.75 0.25 1.28125q0.265625 0.515625 0.6875 0.765625q0.4375 0.25 0.96875 0.25zm19.530853 3.546875l-6.3125 -14.9375l5.421875 0l5.140625 12.609375l-3.21875 0l5.28125 -12.609375l4.953125 0l-6.3125 14.9375l-4.953125 0zm16.032928 0.21875q-1.375 0 -2.5 -0.5625q-1.125 -0.578125 -1.765625 -1.78125q-0.625 -1.203125 -0.625 -3.09375l0 -6.453125l4.8125 0l0 5.609375q0 1.25 0.40625 1.734375q0.40625 0.484375 1.109375 0.484375q0.421875 0 0.796875 -0.21875q0.375 -0.21875 0.609375 -0.734375q0.234375 -0.53125 0.234375 -1.390625l0 -5.484375l4.828125 0l0 11.671875l-4.59375 0l0 -3.375l0.921875 0.921875q-0.625 1.359375 -1.765625 2.015625q-1.140625 0.65625 -2.46875 0.65625zm16.46521 0q-2.125 0 -3.71875 -0.78125q-1.578125 -0.796875 -2.453125 -2.171875q-0.875 -1.375 -0.875 -3.109375q0 -1.765625 0.859375 -3.125q0.859375 -1.375 2.359375 -2.140625q1.515625 -0.765625 3.390625 -0.765625q1.71875 0 3.171875 0.6875q1.46875 0.671875 2.359375 2.015625q0.890625 1.34375 0.890625 3.328125q0 0.25 -0.03125 0.5625q-0.015625 0.3125 -0.03125 0.5625l-8.984375 0l0 -2.3125l6.421875 0l-1.8125 0.609375q0 -0.6875 -0.25 -1.15625q-0.25 -0.484375 -0.671875 -0.75q-0.421875 -0.265625 -1.015625 -0.265625q-0.609375 0 -1.046875 0.265625q-0.4375 0.265625 -0.671875 0.75q-0.234375 0.46875 -0.234375 1.15625l0 0.734375q0 0.734375 0.296875 1.28125q0.3125 0.53125 0.859375 0.796875q0.5625 0.265625 1.34375 0.265625q0.8125 0 1.328125 -0.21875q0.53125 -0.21875 1.109375 -0.640625l2.515625 2.546875q-0.859375 0.90625 -2.109375 1.390625q-1.25 0.484375 -3.0 0.484375zm5.9198303 -0.21875l5.5 -7.203125l-0.125 2.765625l-5.25 -7.234375l5.4375 0l2.578125 3.859375l-2.0 0.15625l2.828125 -4.015625l5.0625 0l-5.265625 7.0l0 -2.671875l5.375 7.34375l-5.53125 0l-2.65625 -4.109375l2.015625 0.265625l-2.75 3.84375l-5.21875 0z" fill-rule="nonzero"/><path fill="#000000" fill-opacity="0.0" d="m576.3307 0.81889766l104.031494 0l0 42.015747l-104.031494 0z" fill-rule="evenodd"/><path fill="#000000" d="m586.2057 27.738895l2.765625 -13.84375l1.328125 0l-1.390625 6.890625l-0.59375 1.9375l-0.21875 1.90625l-0.625 3.109375l-1.265625 0zm5.453125 0.09375q-1.265625 0 -2.171875 -0.453125q-0.90625 -0.46875 -1.390625 -1.328125q-0.46875 -0.875 -0.484375 -2.09375q0 -1.34375 0.359375 -2.46875q0.375 -1.125 1.078125 -1.9375q0.703125 -0.8125 1.671875 -1.25q0.984375 -0.453125 2.203125 -0.453125q1.265625 0 2.21875 0.5q0.96875 0.484375 1.515625 1.421875q0.5625 0.9375 0.5625 2.21875q0 1.265625 -0.421875 2.34375q-0.40625 1.0625 -1.171875 1.84375q-0.75 0.78125 -1.765625 1.21875q-1.0 0.4375 -2.203125 0.4375zm-0.015625 -1.171875q1.21875 0 2.171875 -0.578125q0.953125 -0.59375 1.5 -1.640625q0.5625 -1.046875 0.5625 -2.375q0 -1.453125 -0.84375 -2.25q-0.84375 -0.8125 -2.390625 -0.8125q-1.21875 0 -2.1875 0.609375q-0.953125 0.59375 -1.5 1.625q-0.546875 1.03125 -0.546875 2.375q0 1.4375 0.828125 2.25q0.84375 0.796875 2.40625 0.796875zm6.4314575 4.796875q-0.6875 0 -1.3125 -0.234375q-0.640625 -0.234375 -1.015625 -0.65625l0.703125 -0.96875q0.3125 0.34375 0.75 0.53125q0.421875 0.1875 0.96875 0.1875q0.625 0 1.15625 -0.34375q0.546875 -0.34375 1.125 -1.25l0.984375 -1.5l0.171875 -0.1875l5.8125 -9.09375l1.359375 0l-7.15625 11.0625q-0.625 0.9375 -1.171875 1.46875q-0.53125 0.53125 -1.109375 0.75q-0.5625 0.234375 -1.265625 0.234375zm3.125 -3.4375l-2.515625 -10.078125l1.34375 0l2.203125 9.0l-1.03125 1.078125zm18.796509 -0.171875q-1.9375 0 -3.3125 -0.671875q-1.359375 -0.6875 -2.078125 -1.90625q-0.71875 -1.21875 -0.71875 -2.84375q0 -1.609375 0.546875 -3.015625q0.5625 -1.421875 1.59375 -2.515625q1.03125 -1.09375 2.5 -1.703125q1.46875 -0.625 3.3125 -0.625q1.5625 0 2.78125 0.484375q1.21875 0.484375 1.859375 1.421875l-0.96875 0.859375q-0.609375 -0.765625 -1.546875 -1.140625q-0.9375 -0.390625 -2.234375 -0.390625q-1.46875 0 -2.671875 0.515625q-1.203125 0.515625 -2.046875 1.4375q-0.84375 0.90625 -1.296875 2.09375q-0.453125 1.171875 -0.453125 2.515625q0 1.25 0.546875 2.21875q0.546875 0.953125 1.625 1.5q1.09375 0.53125 2.65625 0.53125q1.28125 0 2.328125 -0.390625q1.046875 -0.390625 1.828125 -1.15625l0.796875 0.921875q-0.84375 0.90625 -2.171875 1.390625q-1.328125 0.46875 -2.875 0.46875zm10.937622 -0.015625q-1.375 0 -2.375 -0.515625q-0.984375 -0.515625 -1.546875 -1.4375q-0.546875 -0.9375 -0.546875 -2.203125q0 -1.6875 0.71875 -3.0q0.734375 -1.3125 2.015625 -2.0625q1.296875 -0.765625 2.9375 -0.765625q1.359375 0 2.359375 0.515625q1.0 0.5 1.546875 1.4375q0.546875 0.921875 0.546875 2.1875q0 1.6875 -0.734375 3.0q-0.71875 1.3125 -2.0 2.078125q-1.265625 0.765625 -2.921875 0.765625zm0.078125 -1.171875q1.234375 0 2.1875 -0.578125q0.96875 -0.59375 1.515625 -1.640625q0.5625 -1.046875 0.5625 -2.375q0 -1.453125 -0.859375 -2.25q-0.84375 -0.8125 -2.375 -0.8125q-1.203125 0 -2.1875 0.609375q-0.96875 0.59375 -1.515625 1.625q-0.546875 1.03125 -0.546875 2.375q0 1.4375 0.84375 2.25q0.859375 0.796875 2.375 0.796875zm11.431885 1.171875q-1.25 0 -2.234375 -0.5q-0.96875 -0.515625 -1.515625 -1.4375q-0.53125 -0.9375 -0.53125 -2.21875q0 -1.25 0.40625 -2.3125q0.421875 -1.0625 1.15625 -1.859375q0.75 -0.796875 1.765625 -1.21875q1.015625 -0.4375 2.21875 -0.4375q1.28125 0 2.171875 0.46875q0.90625 0.453125 1.390625 1.328125q0.484375 0.859375 0.484375 2.09375q0 1.3125 -0.375 2.4375q-0.359375 1.125 -1.0625 1.953125q-0.703125 0.8125 -1.6875 1.265625q-0.984375 0.4375 -2.1875 0.4375zm0.265625 -1.171875q1.234375 0 2.1875 -0.578125q0.96875 -0.59375 1.515625 -1.640625q0.5625 -1.046875 0.5625 -2.375q0 -1.453125 -0.859375 -2.25q-0.84375 -0.8125 -2.375 -0.8125q-1.203125 0 -2.1875 0.609375q-0.96875 0.59375 -1.515625 1.625q-0.546875 1.03125 -0.546875 2.375q0 1.4375 0.84375 2.25q0.859375 0.796875 2.375 0.796875zm3.234375 1.078125l0.5625 -2.8125l0.5625 -1.984375l0.1875 -2.046875l1.390625 -7.0l1.328125 0l-2.765625 13.84375l-1.265625 0zm8.148926 0.109375q-1.484375 0 -2.671875 -0.46875q-1.1875 -0.46875 -1.796875 -1.21875l0.734375 -1.046875q0.515625 0.640625 1.5 1.078125q0.984375 0.421875 2.3125 0.421875q1.234375 0 2.09375 -0.359375q0.875 -0.359375 1.34375 -1.03125q0.46875 -0.671875 0.46875 -1.5625q0 -1.125 -0.78125 -1.6875q-0.765625 -0.578125 -2.375 -0.578125l-0.84375 0l0.203125 -0.984375l4.984375 -5.046875l0.171875 0.515625l-7.296875 0l0.234375 -1.203125l8.390625 0l-0.1875 0.953125l-5.0 5.0625l-0.640625 -0.4375l0.3125 0q1.359375 0 2.296875 0.40625q0.9375 0.40625 1.421875 1.140625q0.484375 0.734375 0.484375 1.78125q0 1.25 -0.671875 2.21875q-0.671875 0.96875 -1.875 1.515625q-1.203125 0.53125 -2.8125 0.53125zm7.3345947 -0.109375l1.9375 -9.796875l1.265625 0l-0.546875 2.890625l-0.15625 -0.5q0.65625 -1.28125 1.71875 -1.875q1.078125 -0.609375 2.6875 -0.609375l-0.25 1.296875q-0.09375 0 -0.171875 -0.015625q-0.078125 -0.015625 -0.203125 -0.015625q-1.5625 0 -2.578125 0.90625q-1.015625 0.90625 -1.390625 2.734375l-0.984375 4.984375l-1.328125 0z" fill-rule="nonzero"/></g></svg>